<svg xmlns="http://www.w3.org/2000/svg" xmlns:xlink="http://www.w3.org/1999/xlink" width="1440" height="960" viewBox="0 0 1440 960"><title>Notes before discovery</title><defs>
<linearGradient id="wall" x2="0" y2="1"><stop stop-color="#F7EAD8"/><stop offset="1" stop-color="#EAD6C5"/></linearGradient>
<linearGradient id="floor" x2="0.8" y2="1"><stop stop-color="#EACBAB"/><stop offset="1" stop-color="#F5DCC1"/></linearGradient>
<linearGradient id="paper" x2="0.4" y2="1"><stop stop-color="#FFFEFA"/><stop offset="1" stop-color="#FFF3D3"/></linearGradient>
<radialGradient id="glow"><stop stop-color="#FFF2A8" stop-opacity=".62"/><stop offset="1" stop-color="#FFF2A8" stop-opacity="0"/></radialGradient>
<pattern id="grain" width="6" height="6" patternUnits="userSpaceOnUse"><path d="M1 1h.08M4 4h.06" stroke="#18324B" opacity=".08" stroke-width=".1"/></pattern>
</defs><rect x="0" y="0" width="1440" height="960" rx="0" fill="#FFF9E9" stroke="none" stroke-width="1" /><text x="40" y="47" font-size="28" fill="#18324B" font-weight="700" text-anchor="start" font-family="Segoe UI, Arial, sans-serif">Stage</text><g data-design-control="{&quot;label&quot;: &quot;Goal&quot;, &quot;kind&quot;: &quot;secondary&quot;, &quot;width&quot;: 85, &quot;height&quot;: 50, &quot;textSize&quot;: 20, &quot;focus&quot;: false, &quot;fits&quot;: true}"><rect x="210" y="16" width="85" height="50" rx="12" fill="#FFFEFA" stroke="#18324B" stroke-width="1.6" /><text x="252.5" y="48.0" font-size="20" fill="#18324B" font-weight="700" text-anchor="middle" font-family="Segoe UI, Arial, sans-serif">Goal</text></g><text x="316" y="47" font-size="23" fill="#18324B" font-weight="400" text-anchor="start" font-family="Segoe UI, Arial, sans-serif">Look around or ask the crew about Loop.</text><g data-design-control="{&quot;label&quot;: &quot;Menu&quot;, &quot;kind&quot;: &quot;secondary&quot;, &quot;width&quot;: 99, &quot;height&quot;: 50, &quot;textSize&quot;: 20, &quot;focus&quot;: false, &quot;fits&quot;: true}"><rect x="1303" y="16" width="99" height="50" rx="12" fill="#FFFEFA" stroke="#18324B" stroke-width="1.6" /><text x="1352.5" y="48.0" font-size="20" fill="#18324B" font-weight="700" text-anchor="middle" font-family="Segoe UI, Arial, sans-serif">Menu</text></g><g transform="translate(150 80) scale(9.5)"><rect x="0" y="0" width="120" height="80" rx="0" fill="url(#wall)" stroke="none" stroke-width="1" /><rect x="0" y="28" width="120" height="52" rx="0" fill="url(#floor)" stroke="none" stroke-width="1" /><path d="M0 28H120" fill="none" stroke="#BE9A77" stroke-width="0.7" stroke-linecap="round" stroke-linejoin="round" /><path d="M0 36H120" fill="none" stroke="#D5B491" stroke-width="0.25" stroke-linecap="round" stroke-linejoin="round" /><path d="M0 45H120" fill="none" stroke="#D5B491" stroke-width="0.25" stroke-linecap="round" stroke-linejoin="round" /><path d="M0 54H120" fill="none" stroke="#D5B491" stroke-width="0.25" stroke-linecap="round" stroke-linejoin="round" /><path d="M0 63H120" fill="none" stroke="#D5B491" stroke-width="0.25" stroke-linecap="round" stroke-linejoin="round" /><path d="M0 72H120" fill="none" stroke="#D5B491" stroke-width="0.25" stroke-linecap="round" stroke-linejoin="round" /><path d="M16 36v9" fill="none" stroke="#D5B491" stroke-width="0.22" stroke-linecap="round" stroke-linejoin="round" /><path d="M67 45v9" fill="none" stroke="#D5B491" stroke-width="0.22" stroke-linecap="round" stroke-linejoin="round" /><path d="M40 54v9" fill="none" stroke="#D5B491" stroke-width="0.22" stroke-linecap="round" stroke-linejoin="round" /><path d="M100 72v9" fill="none" stroke="#D5B491" stroke-width="0.22" stroke-linecap="round" stroke-linejoin="round" /><rect x="0" y="54" width="8" height="16" rx="1" fill="#DAE9E6" stroke="none" stroke-width="1" /><path d="M1 69V55h6v14" fill="none" stroke="#43787D" stroke-width="0.8" stroke-linecap="round" stroke-linejoin="round" /><path d="M2 62h4m-3 -2l-2 2 2 2" fill="none" stroke="#18324B" stroke-width="0.5" stroke-linecap="round" stroke-linejoin="round" /><text x="1" y="74" font-size="1.8" fill="#18324B" font-weight="700" text-anchor="start" font-family="Segoe UI, Arial, sans-serif">Courtyard</text><rect x="112" y="54" width="8" height="16" rx="1" fill="#DAE9E6" stroke="none" stroke-width="1" /><path d="M113 69V55h6v14" fill="none" stroke="#43787D" stroke-width="0.8" stroke-linecap="round" stroke-linejoin="round" /><path d="M114 62h4m-1 -2l2 2 -2 2" fill="none" stroke="#18324B" stroke-width="0.5" stroke-linecap="round" stroke-linejoin="round" /><text x="119" y="74" font-size="1.8" fill="#18324B" font-weight="700" text-anchor="end" font-family="Segoe UI, Arial, sans-serif">Workshop</text><path d="M5 7Q19 11 34 7" fill="none" stroke="#647A7A" stroke-width="0.25" stroke-linecap="round" stroke-linejoin="round" /><text x="8" y="8" font-size="4.1" fill="#14646B" font-weight="700" text-anchor="start" font-family="Segoe UI, Arial, sans-serif">SparkFest</text><text x="8" y="12" font-size="1.55" fill="#425B6D" font-weight="700" text-anchor="start" font-family="Segoe UI, Arial, sans-serif">THE LITTLE BRIDGE</text><rect x="38" y="2" width="76" height="23" rx="0.7" fill="#D7DFE6" stroke="#18324B" stroke-width="0.4" /><path d="M73 10l5 0v6h-5Z" fill="none" stroke="#B6C5D0" stroke-width="0.4" stroke-linecap="round" stroke-linejoin="round" /><rect x="9" y="36" width="22" height="4" rx="1" fill="#18324B" stroke="none" stroke-width="1" opacity=".10"/><path d="M10 33v7h2v-7M28 33v7h2v-7" fill="#95744F" stroke="none" stroke-width="1" stroke-linecap="round" stroke-linejoin="round" /><rect x="8" y="17" width="24" height="18" rx="1" fill="#EEC69D" stroke="#967451" stroke-width="0.3" /><path d="M8 32h24v3h-24Z" fill="#DBAA77" stroke="#967451" stroke-width="0.2" stroke-linecap="round" stroke-linejoin="round" /><g transform="translate(15 19) scale(0.15 0.12)"><rect x="0" y="0" width="100" height="100" rx="1" fill="#E2EAF4" stroke="none" stroke-width="1" /><path d="M0 0h100v40Q68 28 53 42Q20 29 0 45Z" fill="#C5D6E8" stroke="none" stroke-width="1" stroke-linecap="round" stroke-linejoin="round" /><circle cx="12" cy="17" r="8" fill="#F7DB93" stroke="none" stroke-width="1"/><path d="M0 60L9 57L17 58L25 56L35 59V100H0Z" fill="#9DB9A3" stroke="#537F6A" stroke-width="0.25" stroke-linecap="round" stroke-linejoin="round" /><path d="M65 60Q72 38 85 38Q95 36 100 45V100H65Z" fill="#B7BE93" stroke="#637953" stroke-width="0.35" stroke-linecap="round" stroke-linejoin="round" /><path d="M35 60Q48 56 65 60V100H35Z" fill="#73BBCD" stroke="none" stroke-width="1" stroke-linecap="round" stroke-linejoin="round" /><path d="M40 76q8 3 17 0" fill="none" stroke="#C9ECED" stroke-width="0.7" stroke-linecap="round" stroke-linejoin="round" /><path d="M40 85q8 3 17 0" fill="none" stroke="#C9ECED" stroke-width="0.7" stroke-linecap="round" stroke-linejoin="round" /><path d="M40 94q8 3 17 0" fill="none" stroke="#C9ECED" stroke-width="0.7" stroke-linecap="round" stroke-linejoin="round" /><path d="M29 70l6 2 -3 4M66 72l5 -2" fill="none" stroke="#B67C53" stroke-width="2" stroke-linecap="round" stroke-linejoin="round" /><path d="M37.0 86L49.0 86L46.6 90L39.4 90Z" fill="#E9725C" stroke="#8D5745" stroke-width="0.4" stroke-linecap="round" stroke-linejoin="round" /><path d="M37.0 86L43 83L49.0 86Z" fill="#FFE4BA" stroke="#8D5745" stroke-width="0.4" stroke-linecap="round" stroke-linejoin="round" /><path d="M51.0 86L63.0 86L60.6 90L53.4 90Z" fill="#E9725C" stroke="#8D5745" stroke-width="0.4" stroke-linecap="round" stroke-linejoin="round" /><path d="M51.0 86L57 83L63.0 86Z" fill="#FFE4BA" stroke="#8D5745" stroke-width="0.4" stroke-linecap="round" stroke-linejoin="round" /><g transform="translate(23 70) scale(.5 1)"><g transform="translate(0 0) scale(0.12844036697247707)"><ellipse cx="0" cy="-1" rx="38" ry="7" fill="#18324B" opacity=".12"/><path d="M-23 -87L-27 -11L-5 -10L0 -63L6 -10L30 -11L24 -87Z" fill="#18324B" stroke="#6A5848" stroke-width="2.4" stroke-linecap="round" stroke-linejoin="round" /><path d="M-28 -16l24 1v10h-37q-5 -7 13 -11M7 -15l23 -1q19 5 15 11H7Z" fill="#2B7F93" stroke="#6A5848" stroke-width="2.4" stroke-linecap="round" stroke-linejoin="round" /><path d="M-26 -132Q0 -144 25 -132L32 -73Q0 -61 -33 -73Z" fill="#23828B" stroke="#6A5848" stroke-width="2.4" stroke-linecap="round" stroke-linejoin="round" /><path d="M-27 -125L-39 -87L-32 -69L-21 -77L-24 -92L-13 -121Z" fill="#23828B" stroke="#6A5848" stroke-width="2.4" stroke-linecap="round" stroke-linejoin="round" /><path d="M24 -127L42 -90L34 -72L23 -80L29 -91L13 -117Z" fill="#23828B" stroke="#6A5848" stroke-width="2.4" stroke-linecap="round" stroke-linejoin="round" /><circle cx="-30" cy="-72" r="7" fill="#D8A453" stroke="#6A5848" stroke-width="2.4"/><circle cx="30" cy="-75" r="7" fill="#D8A453" stroke="#6A5848" stroke-width="2.4"/><rect x="-8" y="-149" width="16" height="21" rx="5" fill="#D8A453" stroke="#6A5848" stroke-width="2.4" /><ellipse cx="0" cy="-164" rx="30" ry="32" fill="#D8A453" /><circle cx="-28" cy="-162" r="7" fill="#D8A453" stroke="none" stroke-width="1"/><circle cx="28" cy="-162" r="7" fill="#D8A453" stroke="none" stroke-width="1"/><path d="M-34 -175L-40 -186L-25 -191L-26 -203L-9 -196L2 -207L18 -196L34 -193L29 -180L36 -170L12 -179L-1 -190L-17 -176Z" fill="#293240" stroke="none" stroke-width="1" stroke-linecap="round" stroke-linejoin="round" /><ellipse cx="-10" cy="-163" rx="3.5" ry="5" fill="#18324B" /><ellipse cx="13" cy="-163" rx="3.5" ry="5" fill="#18324B" /><path d="M-5 -148q7 6 14 -2" fill="none" stroke="#18324B" stroke-width="2.3" stroke-linecap="round" stroke-linejoin="round" /><ellipse cx="-20" cy="-151" rx="5" ry="3" fill="#E9725C" opacity=".45"/><ellipse cx="24" cy="-151" rx="5" ry="3" fill="#E9725C" opacity=".45"/><g transform="translate(30 -105) scale(0.63)"><path d="M-12 -26v-7q12 -10 24 0v7" fill="none" stroke="#A64F43" stroke-width="5" stroke-linecap="round" stroke-linejoin="round" /><rect x="-23" y="-28" width="46" height="56" rx="7" fill="#E9725C" stroke="#A64F43" stroke-width="3" /><path d="M-22 -13q22 12 44 0" fill="none" stroke="#A64F43" stroke-width="3" stroke-linecap="round" stroke-linejoin="round" /><rect x="-5" y="-20" width="14" height="14" rx="1" fill="#F3C65C" stroke="none" stroke-width="1" /><path d="M-15 18l28 -17" fill="none" stroke="#FFF9E9" stroke-width="2" stroke-linecap="round" stroke-linejoin="round" stroke-dasharray="5 4"/></g><rect x="-30" y="-190" width="65" height="172" rx="0" fill="url(#grain)" stroke="none" stroke-width="1" /></g></g><g transform="translate(91 65) scale(.5 1)"><g transform="translate(0 0) scale(0.12844036697247707)"><ellipse cx="0" cy="-1" rx="38" ry="7" fill="#18324B" opacity=".12"/><path d="M-23 -82L-35 -16Q0 -6 36 -16L24 -82Z" fill="#704F89" stroke="#6A5848" stroke-width="2.4" stroke-linecap="round" stroke-linejoin="round" /><path d="M-28 -16l24 1v10h-37q-5 -7 13 -11M7 -15l23 -1q19 5 15 11H7Z" fill="#2B7F93" stroke="#6A5848" stroke-width="2.4" stroke-linecap="round" stroke-linejoin="round" /><path d="M-26 -132Q0 -144 25 -132L32 -73Q0 -61 -33 -73Z" fill="#E9725C" stroke="#6A5848" stroke-width="2.4" stroke-linecap="round" stroke-linejoin="round" /><path d="M-29 -126L-50 -108L-72 -115L-77 -104L-48 -93L-26 -104Z" fill="#E9725C" stroke="#6A5848" stroke-width="2.4" stroke-linecap="round" stroke-linejoin="round" /><path d="M24 -127L42 -90L34 -72L23 -80L29 -91L13 -117Z" fill="#E9725C" stroke="#6A5848" stroke-width="2.4" stroke-linecap="round" stroke-linejoin="round" /><circle cx="-75" cy="-110" r="7" fill="#B88047" stroke="#6A5848" stroke-width="2.4"/><circle cx="30" cy="-75" r="7" fill="#B88047" stroke="#6A5848" stroke-width="2.4"/><rect x="-8" y="-149" width="16" height="21" rx="5" fill="#B88047" stroke="#6A5848" stroke-width="2.4" /><circle cx="-24" cy="-184" r="17" fill="#F2E8D3" stroke="#6A5848" stroke-width="1"/><circle cx="0" cy="-194" r="17" fill="#F2E8D3" stroke="#6A5848" stroke-width="1"/><circle cx="25" cy="-183" r="17" fill="#F2E8D3" stroke="#6A5848" stroke-width="1"/><circle cx="-36" cy="-163" r="17" fill="#F2E8D3" stroke="#6A5848" stroke-width="1"/><circle cx="37" cy="-161" r="17" fill="#F2E8D3" stroke="#6A5848" stroke-width="1"/><ellipse cx="0" cy="-164" rx="30" ry="32" fill="#B88047" /><circle cx="-28" cy="-162" r="7" fill="#B88047" stroke="none" stroke-width="1"/><circle cx="28" cy="-162" r="7" fill="#B88047" stroke="none" stroke-width="1"/><path d="M-30 -183Q-12 -205 7 -185L19 -192L31 -181L24 -176L7 -184L-8 -174Z" fill="#F2E8D3" stroke="none" stroke-width="1" stroke-linecap="round" stroke-linejoin="round" /><ellipse cx="-10" cy="-163" rx="3.5" ry="5" fill="#18324B" /><ellipse cx="13" cy="-163" rx="3.5" ry="5" fill="#18324B" /><path d="M-5 -148q7 6 14 -2" fill="none" stroke="#18324B" stroke-width="2.3" stroke-linecap="round" stroke-linejoin="round" /><ellipse cx="-20" cy="-151" rx="5" ry="3" fill="#E9725C" opacity=".45"/><ellipse cx="24" cy="-151" rx="5" ry="3" fill="#E9725C" opacity=".45"/><rect x="-30" y="-190" width="65" height="172" rx="0" fill="url(#grain)" stroke="none" stroke-width="1" /></g></g><ellipse cx="29" cy="74" rx="2.73" ry="3.5" fill="#B47B32" /><path d="M28.7 71.55q-0.7000000000000001 2.1 .5 3.5" fill="none" stroke="#F2CD81" stroke-width="0.7000000000000001" stroke-linecap="round" stroke-linejoin="round" /><rect x="0" y="0" width="100" height="100" rx="0" fill="url(#grain)" stroke="none" stroke-width="1" /></g><rect x="8.4" y="24.4" width="7" height="9" rx="0.3" fill="#18324B" stroke="none" stroke-width="1" opacity=".12"/><rect x="8" y="24" width="7" height="9" rx="0.3" fill="url(#paper)" stroke="#B9A585" stroke-width="0.25" /><path d="M8 24l3.5 4.5 3.5 -4.5" fill="none" stroke="#C8AC83" stroke-width="0.3" stroke-linecap="round" stroke-linejoin="round" /><rect x="16" y="36" width="8" height="4" rx="0.7" fill="#E9725C" stroke="#18324B" stroke-width="0.3" /><path d="M18 38h4" fill="none" stroke="#FFF9E9" stroke-width="0.4" stroke-linecap="round" stroke-linejoin="round" /><rect x="25" y="35" width="6" height="4" rx="0.5" fill="#C49B6B" stroke="#8C704F" stroke-width="0.3" /><path d="M27 37h2" fill="none" stroke="#18324B" stroke-width="0.5" stroke-linecap="round" stroke-linejoin="round" /><rect x="47" y="34" width="14" height="4" rx="1" fill="#18324B" stroke="none" stroke-width="1" opacity=".10"/><path d="M48 31v7h2v-7M58 31v7h2v-7" fill="#95744F" stroke="none" stroke-width="1" stroke-linecap="round" stroke-linejoin="round" /><rect x="46" y="26" width="16" height="7" rx="1" fill="#D6C5A8" stroke="#967451" stroke-width="0.3" /><path d="M46 30h16v3h-16Z" fill="#DBAA77" stroke="#967451" stroke-width="0.2" stroke-linecap="round" stroke-linejoin="round" /><rect x="47.4" y="26.4" width="7" height="8" rx="0.3" fill="#18324B" stroke="none" stroke-width="1" opacity=".12"/><rect x="47" y="26" width="7" height="8" rx="0.3" fill="url(#paper)" stroke="#B9A585" stroke-width="0.25" /><path d="M47 26l3.5 4.0 3.5 -4.0" fill="none" stroke="#C8AC83" stroke-width="0.3" stroke-linecap="round" stroke-linejoin="round" /><rect x="55" y="27" width="7" height="9" rx="0.6" fill="#14646B" stroke="#18324B" stroke-width="0.3" /><path d="M56 29h5v4h-5Z" fill="#FFF9E9" stroke="none" stroke-width="1" stroke-linecap="round" stroke-linejoin="round" /><rect x="68" y="26" width="16" height="15" rx="1" fill="#7E999E" stroke="#18324B" stroke-width="0.35" /><ellipse cx="76" cy="34" rx="6" ry="3" fill="#28465A" /><rect x="70" y="34" width="10" height="6" rx="0.5" fill="#B1C9C7" stroke="#18324B" stroke-width="0.3" /><circle cx="83.5" cy="39" r="0.9" fill="#F3C65C" stroke="none" stroke-width="1"/><rect x="49" y="72" width="56" height="4" rx="1" fill="#18324B" stroke="none" stroke-width="1" opacity=".10"/><path d="M50 69v7h2v-7M102 69v7h2v-7" fill="#95744F" stroke="none" stroke-width="1" stroke-linecap="round" stroke-linejoin="round" /><rect x="48" y="66" width="58" height="5" rx="1" fill="#689699" stroke="#967451" stroke-width="0.3" /><path d="M48 68h58v3h-58Z" fill="#DBAA77" stroke="#967451" stroke-width="0.2" stroke-linecap="round" stroke-linejoin="round" /><rect x="49" y="67" width="14" height="8" rx="0.8" fill="#B7D3CB" stroke="#18324B" stroke-width="0.3" /><rect x="64" y="67" width="29" height="8" rx="0.6" fill="#CCE0D5" stroke="#18324B" stroke-width="0.25" /><rect x="95" y="67" width="4" height="3" rx="0.5" fill="#F3C65C" stroke="#18324B" stroke-width="0.25" /><rect x="100" y="67" width="4" height="3" rx="0.5" fill="#E9725C" stroke="#18324B" stroke-width="0.25" /><rect x="95" y="72" width="4" height="3" rx="0.5" fill="#FFF9E9" stroke="#18324B" stroke-width="0.25" /><rect x="100" y="72" width="4" height="3" rx="0.5" fill="#FFF9E9" stroke="#18324B" stroke-width="0.25" /><g transform="translate(37 48) scale(0.06422018348623854)"><ellipse cx="0" cy="-1" rx="38" ry="7" fill="#18324B" opacity=".12"/><path d="M-23 -87L-27 -11L-5 -10L0 -63L6 -10L30 -11L24 -87Z" fill="#147D83" stroke="#314456" stroke-width="2.4" stroke-linecap="round" stroke-linejoin="round" /><path d="M-28 -16l24 1v10h-37q-5 -7 13 -11M7 -15l23 -1q19 5 15 11H7Z" fill="#FFF9E9" stroke="#314456" stroke-width="2.4" stroke-linecap="round" stroke-linejoin="round" /><path d="M-26 -132Q0 -144 25 -132L32 -73Q0 -61 -33 -73Z" fill="#E8755F" stroke="#314456" stroke-width="2.4" stroke-linecap="round" stroke-linejoin="round" /><path d="M-18 -134v29h36v-29M-24 -100h48v34h-48Z" fill="#147D83" stroke="#314456" stroke-width="2.4" stroke-linecap="round" stroke-linejoin="round" /><rect x="-12" y="-91" width="24" height="17" rx="2" fill="#258892" stroke="#314456" stroke-width="2" /><path d="M-29 -126L-50 -108L-72 -115L-77 -104L-48 -93L-26 -104Z" fill="#E8755F" stroke="#314456" stroke-width="2.4" stroke-linecap="round" stroke-linejoin="round" /><path d="M24 -127L42 -90L34 -72L23 -80L29 -91L13 -117Z" fill="#E8755F" stroke="#314456" stroke-width="2.4" stroke-linecap="round" stroke-linejoin="round" /><circle cx="-75" cy="-110" r="7" fill="#F2BD99" stroke="#314456" stroke-width="2.4"/><circle cx="30" cy="-75" r="7" fill="#F2BD99" stroke="#314456" stroke-width="2.4"/><rect x="-8" y="-149" width="16" height="21" rx="5" fill="#F2BD99" stroke="#314456" stroke-width="2.4" /><ellipse cx="0" cy="-164" rx="30" ry="32" fill="#F2BD99" /><circle cx="-28" cy="-162" r="7" fill="#F2BD99" stroke="none" stroke-width="1"/><circle cx="28" cy="-162" r="7" fill="#F2BD99" stroke="none" stroke-width="1"/><circle cx="-26" cy="-185" r="11" fill="#593629" stroke="#314456" stroke-width="1.5"/><circle cx="-12" cy="-199" r="11" fill="#593629" stroke="#314456" stroke-width="1.5"/><circle cx="5" cy="-199" r="11" fill="#593629" stroke="#314456" stroke-width="1.5"/><circle cx="22" cy="-191" r="11" fill="#593629" stroke="#314456" stroke-width="1.5"/><circle cx="-30" cy="-174" r="11" fill="#593629" stroke="#314456" stroke-width="1.5"/><circle cx="29" cy="-178" r="11" fill="#593629" stroke="#314456" stroke-width="1.5"/><circle cx="-38" cy="-201" r="20" fill="#593629" stroke="#314456" stroke-width="2"/><circle cx="35" cy="-205" r="21" fill="#593629" stroke="#314456" stroke-width="2"/><ellipse cx="-10" cy="-163" rx="3.5" ry="5" fill="#18324B" /><ellipse cx="13" cy="-163" rx="3.5" ry="5" fill="#18324B" /><path d="M-5 -148q7 6 14 -2" fill="none" stroke="#18324B" stroke-width="2.3" stroke-linecap="round" stroke-linejoin="round" /><ellipse cx="-20" cy="-151" rx="5" ry="3" fill="#E9725C" opacity=".45"/><ellipse cx="24" cy="-151" rx="5" ry="3" fill="#E9725C" opacity=".45"/></g><g transform="translate(20 50) scale(0.05504587155963303)"><ellipse cx="0" cy="-1" rx="38" ry="7" fill="#18324B" opacity=".12"/><path d="M-23 -87L-27 -11L-5 -10L0 -63L6 -10L30 -11L24 -87Z" fill="#3867D6" stroke="#314456" stroke-width="2.4" stroke-linecap="round" stroke-linejoin="round" /><path d="M-28 -16l24 1v10h-37q-5 -7 13 -11M7 -15l23 -1q19 5 15 11H7Z" fill="#E9725C" stroke="#314456" stroke-width="2.4" stroke-linecap="round" stroke-linejoin="round" /><path d="M-26 -132Q0 -144 25 -132L32 -73Q0 -61 -33 -73Z" fill="#F3C65C" stroke="#314456" stroke-width="2.4" stroke-linecap="round" stroke-linejoin="round" /><path d="M-6 -136L-8 -74L14 -72L10 -134Z" fill="#25848A" stroke="none" stroke-width="1" stroke-linecap="round" stroke-linejoin="round" /><path d="M-23 -127l15 12M22 -127l-10 12" fill="none" stroke="#BC8438" stroke-width="3" stroke-linecap="round" stroke-linejoin="round" /><path d="M-27 -125L-39 -87L-32 -69L-21 -77L-24 -92L-13 -121Z" fill="#F3C65C" stroke="#314456" stroke-width="2.4" stroke-linecap="round" stroke-linejoin="round" /><path d="M24 -127L42 -90L34 -72L23 -80L29 -91L13 -117Z" fill="#F3C65C" stroke="#314456" stroke-width="2.4" stroke-linecap="round" stroke-linejoin="round" /><circle cx="-30" cy="-72" r="7" fill="#BD7A48" stroke="#314456" stroke-width="2.4"/><circle cx="30" cy="-75" r="7" fill="#BD7A48" stroke="#314456" stroke-width="2.4"/><rect x="-8" y="-149" width="16" height="21" rx="5" fill="#BD7A48" stroke="#314456" stroke-width="2.4" /><ellipse cx="0" cy="-164" rx="30" ry="32" fill="#BD7A48" /><circle cx="-28" cy="-162" r="7" fill="#BD7A48" stroke="none" stroke-width="1"/><circle cx="28" cy="-162" r="7" fill="#BD7A48" stroke="none" stroke-width="1"/><circle cx="-26" cy="-185" r="11" fill="#38271F" stroke="#314456" stroke-width="1.5"/><circle cx="-12" cy="-199" r="11" fill="#38271F" stroke="#314456" stroke-width="1.5"/><circle cx="5" cy="-199" r="11" fill="#38271F" stroke="#314456" stroke-width="1.5"/><circle cx="22" cy="-191" r="11" fill="#38271F" stroke="#314456" stroke-width="1.5"/><circle cx="-30" cy="-174" r="11" fill="#38271F" stroke="#314456" stroke-width="1.5"/><circle cx="29" cy="-178" r="11" fill="#38271F" stroke="#314456" stroke-width="1.5"/><ellipse cx="-10" cy="-163" rx="3.5" ry="5" fill="#18324B" /><ellipse cx="13" cy="-163" rx="3.5" ry="5" fill="#18324B" /><path d="M-5 -148q7 6 14 -2" fill="none" stroke="#18324B" stroke-width="2.3" stroke-linecap="round" stroke-linejoin="round" /><ellipse cx="-20" cy="-151" rx="5" ry="3" fill="#E9725C" opacity=".45"/><ellipse cx="24" cy="-151" rx="5" ry="3" fill="#E9725C" opacity=".45"/></g><rect x="0" y="0" width="120" height="80" rx="0" fill="url(#grain)" stroke="none" stroke-width="1" /></g><g data-design-control="{&quot;label&quot;: &quot;Move to…&quot;, &quot;kind&quot;: &quot;secondary&quot;, &quot;width&quot;: 131, &quot;height&quot;: 50, &quot;textSize&quot;: 20, &quot;focus&quot;: false, &quot;fits&quot;: true}"><rect x="48" y="899" width="131" height="50" rx="12" fill="#FFFEFA" stroke="#18324B" stroke-width="1.6" /><text x="113.5" y="931.0" font-size="20" fill="#18324B" font-weight="700" text-anchor="middle" font-family="Segoe UI, Arial, sans-serif">Move to…</text></g><g data-design-control="{&quot;label&quot;: &quot;Map&quot;, &quot;kind&quot;: &quot;secondary&quot;, &quot;width&quot;: 88, &quot;height&quot;: 50, &quot;textSize&quot;: 20, &quot;focus&quot;: false, &quot;fits&quot;: true}"><rect x="191" y="899" width="88" height="50" rx="12" fill="#FFFEFA" stroke="#18324B" stroke-width="1.6" /><text x="235.0" y="931.0" font-size="20" fill="#18324B" font-weight="700" text-anchor="middle" font-family="Segoe UI, Arial, sans-serif">Map</text></g><g data-design-control="{&quot;label&quot;: &quot;Notes&quot;, &quot;kind&quot;: &quot;secondary&quot;, &quot;width&quot;: 90, &quot;height&quot;: 50, &quot;textSize&quot;: 20, &quot;focus&quot;: false, &quot;fits&quot;: true}"><rect x="291" y="899" width="90" height="50" rx="12" fill="#FFFEFA" stroke="#18324B" stroke-width="1.6" /><text x="336.0" y="931.0" font-size="20" fill="#18324B" font-weight="700" text-anchor="middle" font-family="Segoe UI, Arial, sans-serif">Notes</text></g><g data-design-control="{&quot;label&quot;: &quot;Help&quot;, &quot;kind&quot;: &quot;secondary&quot;, &quot;width&quot;: 88, &quot;height&quot;: 50, &quot;textSize&quot;: 20, &quot;focus&quot;: false, &quot;fits&quot;: true}"><rect x="393" y="899" width="88" height="50" rx="12" fill="#FFFEFA" stroke="#18324B" stroke-width="1.6" /><text x="437.0" y="931.0" font-size="20" fill="#18324B" font-weight="700" text-anchor="middle" font-family="Segoe UI, Arial, sans-serif">Help</text></g><rect x="0" y="80" width="1440" height="780" rx="0" fill="#18324B" stroke="none" stroke-width="1" opacity=".28"/><rect x="227" y="120" width="1000" height="740" rx="24" fill="#18324B" stroke="none" stroke-width="1" opacity=".14"/><rect x="220" y="110" width="1000" height="740" rx="22" fill="#FFFEFA" stroke="#657989" stroke-width="1.5" /><text x="250" y="158" font-size="32" fill="#18324B" font-weight="700" text-anchor="start" font-family="Segoe UI, Arial, sans-serif">Notes</text><g data-design-control="{&quot;label&quot;: &quot;Close&quot;, &quot;kind&quot;: &quot;secondary&quot;, &quot;width&quot;: 88, &quot;height&quot;: 50, &quot;textSize&quot;: 20, &quot;focus&quot;: false, &quot;fits&quot;: true}"><rect x="1108" y="127" width="88" height="50" rx="12" fill="#FFFEFA" stroke="#18324B" stroke-width="1.6" /><text x="1152.0" y="159.0" font-size="20" fill="#18324B" font-weight="700" text-anchor="middle" font-family="Segoe UI, Arial, sans-serif">Close</text></g><path d="M244 198H1196" fill="none" stroke="#CDD9DD" stroke-width="1.5" stroke-linecap="round" stroke-linejoin="round" /><g data-design-control="{&quot;label&quot;: &quot;Evidence&quot;, &quot;kind&quot;: &quot;secondary&quot;, &quot;width&quot;: 117, &quot;height&quot;: 50, &quot;textSize&quot;: 20, &quot;focus&quot;: false, &quot;fits&quot;: true}"><rect x="258" y="231" width="117" height="50" rx="12" fill="#FFFEFA" stroke="#18324B" stroke-width="1.6" /><text x="316.5" y="263.0" font-size="20" fill="#18324B" font-weight="700" text-anchor="middle" font-family="Segoe UI, Arial, sans-serif">Evidence</text></g><g data-design-control="{&quot;label&quot;: &quot;Compare&quot;, &quot;kind&quot;: &quot;secondary&quot;, &quot;width&quot;: 119, &quot;height&quot;: 50, &quot;textSize&quot;: 20, &quot;focus&quot;: false, &quot;fits&quot;: true}"><rect x="387" y="231" width="119" height="50" rx="12" fill="#FFFEFA" stroke="#18324B" stroke-width="1.6" /><text x="446.5" y="263.0" font-size="20" fill="#18324B" font-weight="700" text-anchor="middle" font-family="Segoe UI, Arial, sans-serif">Compare</text></g><g data-design-control="{&quot;label&quot;: &quot;Timeline&quot;, &quot;kind&quot;: &quot;secondary&quot;, &quot;width&quot;: 115, &quot;height&quot;: 50, &quot;textSize&quot;: 20, &quot;focus&quot;: false, &quot;fits&quot;: true}"><rect x="518" y="231" width="115" height="50" rx="12" fill="#FFFEFA" stroke="#18324B" stroke-width="1.6" /><text x="575.5" y="263.0" font-size="20" fill="#18324B" font-weight="700" text-anchor="middle" font-family="Segoe UI, Arial, sans-serif">Timeline</text></g><g data-design-control="{&quot;label&quot;: &quot;My ideas&quot;, &quot;kind&quot;: &quot;secondary&quot;, &quot;width&quot;: 118, &quot;height&quot;: 50, &quot;textSize&quot;: 20, &quot;focus&quot;: false, &quot;fits&quot;: true}"><rect x="645" y="231" width="118" height="50" rx="12" fill="#FFFEFA" stroke="#18324B" stroke-width="1.6" /><text x="704.0" y="263.0" font-size="20" fill="#18324B" font-weight="700" text-anchor="middle" font-family="Segoe UI, Arial, sans-serif">My ideas</text></g><text x="272" y="383" font-size="30" fill="#18324B" font-weight="400" text-anchor="start" font-family="Segoe UI, Arial, sans-serif">Your discoveries will stay here.</text><g data-design-control="{&quot;label&quot;: &quot;Return to room&quot;, &quot;kind&quot;: &quot;secondary&quot;, &quot;width&quot;: 190, &quot;height&quot;: 50, &quot;textSize&quot;: 20, &quot;focus&quot;: false, &quot;fits&quot;: true}"><rect x="250" y="775" width="190" height="50" rx="12" fill="#FFFEFA" stroke="#18324B" stroke-width="1.6" /><text x="345.0" y="807.0" font-size="20" fill="#18324B" font-weight="700" text-anchor="middle" font-family="Segoe UI, Arial, sans-serif">Return to room</text></g></svg>