<svg xmlns="http://www.w3.org/2000/svg" xmlns:xlink="http://www.w3.org/1999/xlink" width="1440" height="1040" viewBox="0 0 1440 1040"><title>Opening Stage — annotated</title><defs>
<linearGradient id="wall" x2="0" y2="1"><stop stop-color="#F7EAD8"/><stop offset="1" stop-color="#EAD6C5"/></linearGradient>
<linearGradient id="floor" x2="0.8" y2="1"><stop stop-color="#EACBAB"/><stop offset="1" stop-color="#F5DCC1"/></linearGradient>
<linearGradient id="paper" x2="0.4" y2="1"><stop stop-color="#FFFEFA"/><stop offset="1" stop-color="#FFF3D3"/></linearGradient>
<radialGradient id="glow"><stop stop-color="#FFF2A8" stop-opacity=".62"/><stop offset="1" stop-color="#FFF2A8" stop-opacity="0"/></radialGradient>
<pattern id="grain" width="6" height="6" patternUnits="userSpaceOnUse"><path d="M1 1h.08M4 4h.06" stroke="#18324B" opacity=".08" stroke-width=".1"/></pattern>
</defs><rect x="0" y="0" width="1440" height="1040" rx="0" fill="#FFF9E9" stroke="none" stroke-width="1" /><text x="30" y="42" font-size="30" fill="#18324B" font-weight="700" text-anchor="start" font-family="Segoe UI, Arial, sans-serif">Opening Stage · placement reference</text><g transform="translate(0 100) scale(10)"><rect x="0" y="0" width="120" height="80" rx="0" fill="url(#wall)" stroke="none" stroke-width="1" /><rect x="0" y="28" width="120" height="52" rx="0" fill="url(#floor)" stroke="none" stroke-width="1" /><path d="M0 28H120" fill="none" stroke="#BE9A77" stroke-width="0.7" stroke-linecap="round" stroke-linejoin="round" /><path d="M0 36H120" fill="none" stroke="#D5B491" stroke-width="0.25" stroke-linecap="round" stroke-linejoin="round" /><path d="M0 45H120" fill="none" stroke="#D5B491" stroke-width="0.25" stroke-linecap="round" stroke-linejoin="round" /><path d="M0 54H120" fill="none" stroke="#D5B491" stroke-width="0.25" stroke-linecap="round" stroke-linejoin="round" /><path d="M0 63H120" fill="none" stroke="#D5B491" stroke-width="0.25" stroke-linecap="round" stroke-linejoin="round" /><path d="M0 72H120" fill="none" stroke="#D5B491" stroke-width="0.25" stroke-linecap="round" stroke-linejoin="round" /><path d="M16 36v9" fill="none" stroke="#D5B491" stroke-width="0.22" stroke-linecap="round" stroke-linejoin="round" /><path d="M67 45v9" fill="none" stroke="#D5B491" stroke-width="0.22" stroke-linecap="round" stroke-linejoin="round" /><path d="M40 54v9" fill="none" stroke="#D5B491" stroke-width="0.22" stroke-linecap="round" stroke-linejoin="round" /><path d="M100 72v9" fill="none" stroke="#D5B491" stroke-width="0.22" stroke-linecap="round" stroke-linejoin="round" /><rect x="0" y="54" width="8" height="16" rx="1" fill="#DAE9E6" stroke="none" stroke-width="1" /><path d="M1 69V55h6v14" fill="none" stroke="#43787D" stroke-width="0.8" stroke-linecap="round" stroke-linejoin="round" /><path d="M2 62h4m-3 -2l-2 2 2 2" fill="none" stroke="#18324B" stroke-width="0.5" stroke-linecap="round" stroke-linejoin="round" /><text x="1" y="74" font-size="1.8" fill="#18324B" font-weight="700" text-anchor="start" font-family="Segoe UI, Arial, sans-serif">Courtyard</text><rect x="112" y="54" width="8" height="16" rx="1" fill="#DAE9E6" stroke="none" stroke-width="1" /><path d="M113 69V55h6v14" fill="none" stroke="#43787D" stroke-width="0.8" stroke-linecap="round" stroke-linejoin="round" /><path d="M114 62h4m-1 -2l2 2 -2 2" fill="none" stroke="#18324B" stroke-width="0.5" stroke-linecap="round" stroke-linejoin="round" /><text x="119" y="74" font-size="1.8" fill="#18324B" font-weight="700" text-anchor="end" font-family="Segoe UI, Arial, sans-serif">Workshop</text><path d="M5 7Q19 11 34 7" fill="none" stroke="#647A7A" stroke-width="0.25" stroke-linecap="round" stroke-linejoin="round" /><text x="8" y="8" font-size="4.1" fill="#14646B" font-weight="700" text-anchor="start" font-family="Segoe UI, Arial, sans-serif">SparkFest</text><text x="8" y="12" font-size="1.55" fill="#425B6D" font-weight="700" text-anchor="start" font-family="Segoe UI, Arial, sans-serif">THE LITTLE BRIDGE</text><rect x="38" y="2" width="76" height="23" rx="0.7" fill="#D7DFE6" stroke="#18324B" stroke-width="0.4" /><path d="M73 10l5 0v6h-5Z" fill="none" stroke="#B6C5D0" stroke-width="0.4" stroke-linecap="round" stroke-linejoin="round" /><rect x="9" y="36" width="22" height="4" rx="1" fill="#18324B" stroke="none" stroke-width="1" opacity=".10"/><path d="M10 33v7h2v-7M28 33v7h2v-7" fill="#95744F" stroke="none" stroke-width="1" stroke-linecap="round" stroke-linejoin="round" /><rect x="8" y="17" width="24" height="18" rx="1" fill="#EEC69D" stroke="#967451" stroke-width="0.3" /><path d="M8 32h24v3h-24Z" fill="#DBAA77" stroke="#967451" stroke-width="0.2" stroke-linecap="round" stroke-linejoin="round" /><g transform="translate(15 19) scale(0.15 0.12)"><rect x="0" y="0" width="100" height="100" rx="1" fill="#E2EAF4" stroke="none" stroke-width="1" /><path d="M0 0h100v40Q68 28 53 42Q20 29 0 45Z" fill="#C5D6E8" stroke="none" stroke-width="1" stroke-linecap="round" stroke-linejoin="round" /><circle cx="12" cy="17" r="8" fill="#F7DB93" stroke="none" stroke-width="1"/><path d="M0 60L9 57L17 58L25 56L35 59V100H0Z" fill="#9DB9A3" stroke="#537F6A" stroke-width="0.25" stroke-linecap="round" stroke-linejoin="round" /><path d="M65 60Q72 38 85 38Q95 36 100 45V100H65Z" fill="#B7BE93" stroke="#637953" stroke-width="0.35" stroke-linecap="round" stroke-linejoin="round" /><path d="M35 60Q48 56 65 60V100H35Z" fill="#73BBCD" stroke="none" stroke-width="1" stroke-linecap="round" stroke-linejoin="round" /><path d="M40 76q8 3 17 0" fill="none" stroke="#C9ECED" stroke-width="0.7" stroke-linecap="round" stroke-linejoin="round" /><path d="M40 85q8 3 17 0" fill="none" stroke="#C9ECED" stroke-width="0.7" stroke-linecap="round" stroke-linejoin="round" /><path d="M40 94q8 3 17 0" fill="none" stroke="#C9ECED" stroke-width="0.7" stroke-linecap="round" stroke-linejoin="round" /><path d="M29 70l6 2 -3 4M66 72l5 -2" fill="none" stroke="#B67C53" stroke-width="2" stroke-linecap="round" stroke-linejoin="round" /><path d="M37.0 86L49.0 86L46.6 90L39.4 90Z" fill="#E9725C" stroke="#8D5745" stroke-width="0.4" stroke-linecap="round" stroke-linejoin="round" /><path d="M37.0 86L43 83L49.0 86Z" fill="#FFE4BA" stroke="#8D5745" stroke-width="0.4" stroke-linecap="round" stroke-linejoin="round" /><path d="M51.0 86L63.0 86L60.6 90L53.4 90Z" fill="#E9725C" stroke="#8D5745" stroke-width="0.4" stroke-linecap="round" stroke-linejoin="round" /><path d="M51.0 86L57 83L63.0 86Z" fill="#FFE4BA" stroke="#8D5745" stroke-width="0.4" stroke-linecap="round" stroke-linejoin="round" /><g transform="translate(23 70) scale(.5 1)"><g transform="translate(0 0) scale(0.12844036697247707)"><ellipse cx="0" cy="-1" rx="38" ry="7" fill="#18324B" opacity=".12"/><path d="M-23 -87L-27 -11L-5 -10L0 -63L6 -10L30 -11L24 -87Z" fill="#18324B" stroke="#6A5848" stroke-width="2.4" stroke-linecap="round" stroke-linejoin="round" /><path d="M-28 -16l24 1v10h-37q-5 -7 13 -11M7 -15l23 -1q19 5 15 11H7Z" fill="#2B7F93" stroke="#6A5848" stroke-width="2.4" stroke-linecap="round" stroke-linejoin="round" /><path d="M-26 -132Q0 -144 25 -132L32 -73Q0 -61 -33 -73Z" fill="#23828B" stroke="#6A5848" stroke-width="2.4" stroke-linecap="round" stroke-linejoin="round" /><path d="M-27 -125L-39 -87L-32 -69L-21 -77L-24 -92L-13 -121Z" fill="#23828B" stroke="#6A5848" stroke-width="2.4" stroke-linecap="round" stroke-linejoin="round" /><path d="M24 -127L42 -90L34 -72L23 -80L29 -91L13 -117Z" fill="#23828B" stroke="#6A5848" stroke-width="2.4" stroke-linecap="round" stroke-linejoin="round" /><circle cx="-30" cy="-72" r="7" fill="#D8A453" stroke="#6A5848" stroke-width="2.4"/><circle cx="30" cy="-75" r="7" fill="#D8A453" stroke="#6A5848" stroke-width="2.4"/><rect x="-8" y="-149" width="16" height="21" rx="5" fill="#D8A453" stroke="#6A5848" stroke-width="2.4" /><ellipse cx="0" cy="-164" rx="30" ry="32" fill="#D8A453" /><circle cx="-28" cy="-162" r="7" fill="#D8A453" stroke="none" stroke-width="1"/><circle cx="28" cy="-162" r="7" fill="#D8A453" stroke="none" stroke-width="1"/><path d="M-34 -175L-40 -186L-25 -191L-26 -203L-9 -196L2 -207L18 -196L34 -193L29 -180L36 -170L12 -179L-1 -190L-17 -176Z" fill="#293240" stroke="none" stroke-width="1" stroke-linecap="round" stroke-linejoin="round" /><ellipse cx="-10" cy="-163" rx="3.5" ry="5" fill="#18324B" /><ellipse cx="13" cy="-163" rx="3.5" ry="5" fill="#18324B" /><path d="M-5 -148q7 6 14 -2" fill="none" stroke="#18324B" stroke-width="2.3" stroke-linecap="round" stroke-linejoin="round" /><ellipse cx="-20" cy="-151" rx="5" ry="3" fill="#E9725C" opacity=".45"/><ellipse cx="24" cy="-151" rx="5" ry="3" fill="#E9725C" opacity=".45"/><g transform="translate(30 -105) scale(0.63)"><path d="M-12 -26v-7q12 -10 24 0v7" fill="none" stroke="#A64F43" stroke-width="5" stroke-linecap="round" stroke-linejoin="round" /><rect x="-23" y="-28" width="46" height="56" rx="7" fill="#E9725C" stroke="#A64F43" stroke-width="3" /><path d="M-22 -13q22 12 44 0" fill="none" stroke="#A64F43" stroke-width="3" stroke-linecap="round" stroke-linejoin="round" /><rect x="-5" y="-20" width="14" height="14" rx="1" fill="#F3C65C" stroke="none" stroke-width="1" /><path d="M-15 18l28 -17" fill="none" stroke="#FFF9E9" stroke-width="2" stroke-linecap="round" stroke-linejoin="round" stroke-dasharray="5 4"/></g><rect x="-30" y="-190" width="65" height="172" rx="0" fill="url(#grain)" stroke="none" stroke-width="1" /></g></g><g transform="translate(91 65) scale(.5 1)"><g transform="translate(0 0) scale(0.12844036697247707)"><ellipse cx="0" cy="-1" rx="38" ry="7" fill="#18324B" opacity=".12"/><path d="M-23 -82L-35 -16Q0 -6 36 -16L24 -82Z" fill="#704F89" stroke="#6A5848" stroke-width="2.4" stroke-linecap="round" stroke-linejoin="round" /><path d="M-28 -16l24 1v10h-37q-5 -7 13 -11M7 -15l23 -1q19 5 15 11H7Z" fill="#2B7F93" stroke="#6A5848" stroke-width="2.4" stroke-linecap="round" stroke-linejoin="round" /><path d="M-26 -132Q0 -144 25 -132L32 -73Q0 -61 -33 -73Z" fill="#E9725C" stroke="#6A5848" stroke-width="2.4" stroke-linecap="round" stroke-linejoin="round" /><path d="M-29 -126L-50 -108L-72 -115L-77 -104L-48 -93L-26 -104Z" fill="#E9725C" stroke="#6A5848" stroke-width="2.4" stroke-linecap="round" stroke-linejoin="round" /><path d="M24 -127L42 -90L34 -72L23 -80L29 -91L13 -117Z" fill="#E9725C" stroke="#6A5848" stroke-width="2.4" stroke-linecap="round" stroke-linejoin="round" /><circle cx="-75" cy="-110" r="7" fill="#B88047" stroke="#6A5848" stroke-width="2.4"/><circle cx="30" cy="-75" r="7" fill="#B88047" stroke="#6A5848" stroke-width="2.4"/><rect x="-8" y="-149" width="16" height="21" rx="5" fill="#B88047" stroke="#6A5848" stroke-width="2.4" /><circle cx="-24" cy="-184" r="17" fill="#F2E8D3" stroke="#6A5848" stroke-width="1"/><circle cx="0" cy="-194" r="17" fill="#F2E8D3" stroke="#6A5848" stroke-width="1"/><circle cx="25" cy="-183" r="17" fill="#F2E8D3" stroke="#6A5848" stroke-width="1"/><circle cx="-36" cy="-163" r="17" fill="#F2E8D3" stroke="#6A5848" stroke-width="1"/><circle cx="37" cy="-161" r="17" fill="#F2E8D3" stroke="#6A5848" stroke-width="1"/><ellipse cx="0" cy="-164" rx="30" ry="32" fill="#B88047" /><circle cx="-28" cy="-162" r="7" fill="#B88047" stroke="none" stroke-width="1"/><circle cx="28" cy="-162" r="7" fill="#B88047" stroke="none" stroke-width="1"/><path d="M-30 -183Q-12 -205 7 -185L19 -192L31 -181L24 -176L7 -184L-8 -174Z" fill="#F2E8D3" stroke="none" stroke-width="1" stroke-linecap="round" stroke-linejoin="round" /><ellipse cx="-10" cy="-163" rx="3.5" ry="5" fill="#18324B" /><ellipse cx="13" cy="-163" rx="3.5" ry="5" fill="#18324B" /><path d="M-5 -148q7 6 14 -2" fill="none" stroke="#18324B" stroke-width="2.3" stroke-linecap="round" stroke-linejoin="round" /><ellipse cx="-20" cy="-151" rx="5" ry="3" fill="#E9725C" opacity=".45"/><ellipse cx="24" cy="-151" rx="5" ry="3" fill="#E9725C" opacity=".45"/><rect x="-30" y="-190" width="65" height="172" rx="0" fill="url(#grain)" stroke="none" stroke-width="1" /></g></g><ellipse cx="29" cy="74" rx="2.73" ry="3.5" fill="#B47B32" /><path d="M28.7 71.55q-0.7000000000000001 2.1 .5 3.5" fill="none" stroke="#F2CD81" stroke-width="0.7000000000000001" stroke-linecap="round" stroke-linejoin="round" /><rect x="0" y="0" width="100" height="100" rx="0" fill="url(#grain)" stroke="none" stroke-width="1" /></g><rect x="8.4" y="24.4" width="7" height="9" rx="0.3" fill="#18324B" stroke="none" stroke-width="1" opacity=".12"/><rect x="8" y="24" width="7" height="9" rx="0.3" fill="url(#paper)" stroke="#B9A585" stroke-width="0.25" /><path d="M8 24l3.5 4.5 3.5 -4.5" fill="none" stroke="#C8AC83" stroke-width="0.3" stroke-linecap="round" stroke-linejoin="round" /><rect x="16" y="36" width="8" height="4" rx="0.7" fill="#E9725C" stroke="#18324B" stroke-width="0.3" /><path d="M18 38h4" fill="none" stroke="#FFF9E9" stroke-width="0.4" stroke-linecap="round" stroke-linejoin="round" /><rect x="25" y="35" width="6" height="4" rx="0.5" fill="#C49B6B" stroke="#8C704F" stroke-width="0.3" /><path d="M27 37h2" fill="none" stroke="#18324B" stroke-width="0.5" stroke-linecap="round" stroke-linejoin="round" /><rect x="47" y="34" width="14" height="4" rx="1" fill="#18324B" stroke="none" stroke-width="1" opacity=".10"/><path d="M48 31v7h2v-7M58 31v7h2v-7" fill="#95744F" stroke="none" stroke-width="1" stroke-linecap="round" stroke-linejoin="round" /><rect x="46" y="26" width="16" height="7" rx="1" fill="#D6C5A8" stroke="#967451" stroke-width="0.3" /><path d="M46 30h16v3h-16Z" fill="#DBAA77" stroke="#967451" stroke-width="0.2" stroke-linecap="round" stroke-linejoin="round" /><rect x="47.4" y="26.4" width="7" height="8" rx="0.3" fill="#18324B" stroke="none" stroke-width="1" opacity=".12"/><rect x="47" y="26" width="7" height="8" rx="0.3" fill="url(#paper)" stroke="#B9A585" stroke-width="0.25" /><path d="M47 26l3.5 4.0 3.5 -4.0" fill="none" stroke="#C8AC83" stroke-width="0.3" stroke-linecap="round" stroke-linejoin="round" /><rect x="55" y="27" width="7" height="9" rx="0.6" fill="#14646B" stroke="#18324B" stroke-width="0.3" /><path d="M56 29h5v4h-5Z" fill="#FFF9E9" stroke="none" stroke-width="1" stroke-linecap="round" stroke-linejoin="round" /><rect x="68" y="26" width="16" height="15" rx="1" fill="#7E999E" stroke="#18324B" stroke-width="0.35" /><ellipse cx="76" cy="34" rx="6" ry="3" fill="#28465A" /><rect x="70" y="34" width="10" height="6" rx="0.5" fill="#B1C9C7" stroke="#18324B" stroke-width="0.3" /><circle cx="83.5" cy="39" r="0.9" fill="#F3C65C" stroke="none" stroke-width="1"/><rect x="49" y="72" width="56" height="4" rx="1" fill="#18324B" stroke="none" stroke-width="1" opacity=".10"/><path d="M50 69v7h2v-7M102 69v7h2v-7" fill="#95744F" stroke="none" stroke-width="1" stroke-linecap="round" stroke-linejoin="round" /><rect x="48" y="66" width="58" height="5" rx="1" fill="#689699" stroke="#967451" stroke-width="0.3" /><path d="M48 68h58v3h-58Z" fill="#DBAA77" stroke="#967451" stroke-width="0.2" stroke-linecap="round" stroke-linejoin="round" /><rect x="49" y="67" width="14" height="8" rx="0.8" fill="#B7D3CB" stroke="#18324B" stroke-width="0.3" /><rect x="64" y="67" width="29" height="8" rx="0.6" fill="#CCE0D5" stroke="#18324B" stroke-width="0.25" /><rect x="95" y="67" width="4" height="3" rx="0.5" fill="#F3C65C" stroke="#18324B" stroke-width="0.25" /><rect x="100" y="67" width="4" height="3" rx="0.5" fill="#E9725C" stroke="#18324B" stroke-width="0.25" /><rect x="95" y="72" width="4" height="3" rx="0.5" fill="#FFF9E9" stroke="#18324B" stroke-width="0.25" /><rect x="100" y="72" width="4" height="3" rx="0.5" fill="#FFF9E9" stroke="#18324B" stroke-width="0.25" /><g transform="translate(37 48) scale(0.06422018348623854)"><ellipse cx="0" cy="-1" rx="38" ry="7" fill="#18324B" opacity=".12"/><path d="M-23 -87L-27 -11L-5 -10L0 -63L6 -10L30 -11L24 -87Z" fill="#147D83" stroke="#314456" stroke-width="2.4" stroke-linecap="round" stroke-linejoin="round" /><path d="M-28 -16l24 1v10h-37q-5 -7 13 -11M7 -15l23 -1q19 5 15 11H7Z" fill="#FFF9E9" stroke="#314456" stroke-width="2.4" stroke-linecap="round" stroke-linejoin="round" /><path d="M-26 -132Q0 -144 25 -132L32 -73Q0 -61 -33 -73Z" fill="#E8755F" stroke="#314456" stroke-width="2.4" stroke-linecap="round" stroke-linejoin="round" /><path d="M-18 -134v29h36v-29M-24 -100h48v34h-48Z" fill="#147D83" stroke="#314456" stroke-width="2.4" stroke-linecap="round" stroke-linejoin="round" /><rect x="-12" y="-91" width="24" height="17" rx="2" fill="#258892" stroke="#314456" stroke-width="2" /><path d="M-29 -126L-50 -108L-72 -115L-77 -104L-48 -93L-26 -104Z" fill="#E8755F" stroke="#314456" stroke-width="2.4" stroke-linecap="round" stroke-linejoin="round" /><path d="M24 -127L42 -90L34 -72L23 -80L29 -91L13 -117Z" fill="#E8755F" stroke="#314456" stroke-width="2.4" stroke-linecap="round" stroke-linejoin="round" /><circle cx="-75" cy="-110" r="7" fill="#F2BD99" stroke="#314456" stroke-width="2.4"/><circle cx="30" cy="-75" r="7" fill="#F2BD99" stroke="#314456" stroke-width="2.4"/><rect x="-8" y="-149" width="16" height="21" rx="5" fill="#F2BD99" stroke="#314456" stroke-width="2.4" /><ellipse cx="0" cy="-164" rx="30" ry="32" fill="#F2BD99" /><circle cx="-28" cy="-162" r="7" fill="#F2BD99" stroke="none" stroke-width="1"/><circle cx="28" cy="-162" r="7" fill="#F2BD99" stroke="none" stroke-width="1"/><circle cx="-26" cy="-185" r="11" fill="#593629" stroke="#314456" stroke-width="1.5"/><circle cx="-12" cy="-199" r="11" fill="#593629" stroke="#314456" stroke-width="1.5"/><circle cx="5" cy="-199" r="11" fill="#593629" stroke="#314456" stroke-width="1.5"/><circle cx="22" cy="-191" r="11" fill="#593629" stroke="#314456" stroke-width="1.5"/><circle cx="-30" cy="-174" r="11" fill="#593629" stroke="#314456" stroke-width="1.5"/><circle cx="29" cy="-178" r="11" fill="#593629" stroke="#314456" stroke-width="1.5"/><circle cx="-38" cy="-201" r="20" fill="#593629" stroke="#314456" stroke-width="2"/><circle cx="35" cy="-205" r="21" fill="#593629" stroke="#314456" stroke-width="2"/><ellipse cx="-10" cy="-163" rx="3.5" ry="5" fill="#18324B" /><ellipse cx="13" cy="-163" rx="3.5" ry="5" fill="#18324B" /><path d="M-5 -148q7 6 14 -2" fill="none" stroke="#18324B" stroke-width="2.3" stroke-linecap="round" stroke-linejoin="round" /><ellipse cx="-20" cy="-151" rx="5" ry="3" fill="#E9725C" opacity=".45"/><ellipse cx="24" cy="-151" rx="5" ry="3" fill="#E9725C" opacity=".45"/></g><g transform="translate(20 50) scale(0.05504587155963303)"><ellipse cx="0" cy="-1" rx="38" ry="7" fill="#18324B" opacity=".12"/><path d="M-23 -87L-27 -11L-5 -10L0 -63L6 -10L30 -11L24 -87Z" fill="#3867D6" stroke="#314456" stroke-width="2.4" stroke-linecap="round" stroke-linejoin="round" /><path d="M-28 -16l24 1v10h-37q-5 -7 13 -11M7 -15l23 -1q19 5 15 11H7Z" fill="#E9725C" stroke="#314456" stroke-width="2.4" stroke-linecap="round" stroke-linejoin="round" /><path d="M-26 -132Q0 -144 25 -132L32 -73Q0 -61 -33 -73Z" fill="#F3C65C" stroke="#314456" stroke-width="2.4" stroke-linecap="round" stroke-linejoin="round" /><path d="M-6 -136L-8 -74L14 -72L10 -134Z" fill="#25848A" stroke="none" stroke-width="1" stroke-linecap="round" stroke-linejoin="round" /><path d="M-23 -127l15 12M22 -127l-10 12" fill="none" stroke="#BC8438" stroke-width="3" stroke-linecap="round" stroke-linejoin="round" /><path d="M-27 -125L-39 -87L-32 -69L-21 -77L-24 -92L-13 -121Z" fill="#F3C65C" stroke="#314456" stroke-width="2.4" stroke-linecap="round" stroke-linejoin="round" /><path d="M24 -127L42 -90L34 -72L23 -80L29 -91L13 -117Z" fill="#F3C65C" stroke="#314456" stroke-width="2.4" stroke-linecap="round" stroke-linejoin="round" /><circle cx="-30" cy="-72" r="7" fill="#BD7A48" stroke="#314456" stroke-width="2.4"/><circle cx="30" cy="-75" r="7" fill="#BD7A48" stroke="#314456" stroke-width="2.4"/><rect x="-8" y="-149" width="16" height="21" rx="5" fill="#BD7A48" stroke="#314456" stroke-width="2.4" /><ellipse cx="0" cy="-164" rx="30" ry="32" fill="#BD7A48" /><circle cx="-28" cy="-162" r="7" fill="#BD7A48" stroke="none" stroke-width="1"/><circle cx="28" cy="-162" r="7" fill="#BD7A48" stroke="none" stroke-width="1"/><circle cx="-26" cy="-185" r="11" fill="#38271F" stroke="#314456" stroke-width="1.5"/><circle cx="-12" cy="-199" r="11" fill="#38271F" stroke="#314456" stroke-width="1.5"/><circle cx="5" cy="-199" r="11" fill="#38271F" stroke="#314456" stroke-width="1.5"/><circle cx="22" cy="-191" r="11" fill="#38271F" stroke="#314456" stroke-width="1.5"/><circle cx="-30" cy="-174" r="11" fill="#38271F" stroke="#314456" stroke-width="1.5"/><circle cx="29" cy="-178" r="11" fill="#38271F" stroke="#314456" stroke-width="1.5"/><ellipse cx="-10" cy="-163" rx="3.5" ry="5" fill="#18324B" /><ellipse cx="13" cy="-163" rx="3.5" ry="5" fill="#18324B" /><path d="M-5 -148q7 6 14 -2" fill="none" stroke="#18324B" stroke-width="2.3" stroke-linecap="round" stroke-linejoin="round" /><ellipse cx="-20" cy="-151" rx="5" ry="3" fill="#E9725C" opacity=".45"/><ellipse cx="24" cy="-151" rx="5" ry="3" fill="#E9725C" opacity=".45"/></g><rect x="0" y="0" width="120" height="80" rx="0" fill="url(#grain)" stroke="none" stroke-width="1" /></g><circle cx="200" cy="430" r="15" fill="#FFFEFA" stroke="#18324B" stroke-width="2"/><text x="200" y="436" font-size="16" fill="#18324B" font-weight="700" text-anchor="middle" font-family="Segoe UI, Arial, sans-serif">1</text><circle cx="1224" cy="122" r="13" fill="#18324B" stroke="none" stroke-width="1"/><text x="1224" y="127" font-size="14" fill="#FFFEFA" font-weight="700" text-anchor="middle" font-family="Segoe UI, Arial, sans-serif">1</text><text x="1245" y="122" font-size="16" fill="#18324B" font-weight="400" text-anchor="start" font-family="Segoe UI, Arial, sans-serif">ST.MODEL</text><text x="1245" y="143" font-size="16" fill="#18324B" font-weight="400" text-anchor="start" font-family="Segoe UI, Arial, sans-serif">TAB</text><text x="1245" y="164" font-size="16" fill="#18324B" font-weight="400" text-anchor="start" font-family="Segoe UI, Arial, sans-serif">E1</text><text x="1245" y="185" font-size="16" fill="#18324B" font-weight="400" text-anchor="start" font-family="Segoe UI, Arial, sans-serif">E6</text><circle cx="370" cy="580" r="15" fill="#FFFEFA" stroke="#18324B" stroke-width="2"/><text x="370" y="586" font-size="16" fill="#18324B" font-weight="700" text-anchor="middle" font-family="Segoe UI, Arial, sans-serif">2</text><circle cx="1224" cy="188" r="13" fill="#18324B" stroke="none" stroke-width="1"/><text x="1224" y="193" font-size="14" fill="#FFFEFA" font-weight="700" text-anchor="middle" font-family="Segoe UI, Arial, sans-serif">2</text><text x="1245" y="188" font-size="16" fill="#18324B" font-weight="400" text-anchor="start" font-family="Segoe UI, Arial, sans-serif">ACT.JO</text><circle cx="500" cy="400" r="15" fill="#FFFEFA" stroke="#18324B" stroke-width="2"/><text x="500" y="406" font-size="16" fill="#18324B" font-weight="700" text-anchor="middle" font-family="Segoe UI, Arial, sans-serif">3</text><circle cx="1224" cy="254" r="13" fill="#18324B" stroke="none" stroke-width="1"/><text x="1224" y="259" font-size="14" fill="#FFFEFA" font-weight="700" text-anchor="middle" font-family="Segoe UI, Arial, sans-serif">3</text><text x="1245" y="254" font-size="16" fill="#18324B" font-weight="400" text-anchor="start" font-family="Segoe UI, Arial, sans-serif">ST.SOURCE.E4</text><circle cx="580" cy="410" r="15" fill="#FFFEFA" stroke="#18324B" stroke-width="2"/><text x="580" y="416" font-size="16" fill="#18324B" font-weight="700" text-anchor="middle" font-family="Segoe UI, Arial, sans-serif">4</text><circle cx="1224" cy="320" r="13" fill="#18324B" stroke="none" stroke-width="1"/><text x="1224" y="325" font-size="14" fill="#FFFEFA" font-weight="700" text-anchor="middle" font-family="Segoe UI, Arial, sans-serif">4</text><text x="1245" y="320" font-size="16" fill="#18324B" font-weight="400" text-anchor="start" font-family="Segoe UI, Arial, sans-serif">ST.ACCESS.E2</text><circle cx="760" cy="450" r="15" fill="#FFFEFA" stroke="#18324B" stroke-width="2"/><text x="760" y="456" font-size="16" fill="#18324B" font-weight="700" text-anchor="middle" font-family="Segoe UI, Arial, sans-serif">5</text><circle cx="1224" cy="386" r="13" fill="#18324B" stroke="none" stroke-width="1"/><text x="1224" y="391" font-size="14" fill="#FFFEFA" font-weight="700" text-anchor="middle" font-family="Segoe UI, Arial, sans-serif">5</text><text x="1245" y="386" font-size="16" fill="#18324B" font-weight="400" text-anchor="start" font-family="Segoe UI, Arial, sans-serif">ST.DOCK</text><text x="1245" y="407" font-size="16" fill="#18324B" font-weight="400" text-anchor="start" font-family="Segoe UI, Arial, sans-serif">FLAP</text><text x="1245" y="428" font-size="16" fill="#18324B" font-weight="400" text-anchor="start" font-family="Segoe UI, Arial, sans-serif">PAD</text><circle cx="540" cy="800" r="15" fill="#FFFEFA" stroke="#18324B" stroke-width="2"/><text x="540" y="806" font-size="16" fill="#18324B" font-weight="700" text-anchor="middle" font-family="Segoe UI, Arial, sans-serif">6</text><circle cx="1224" cy="452" r="13" fill="#18324B" stroke="none" stroke-width="1"/><text x="1224" y="457" font-size="14" fill="#FFFEFA" font-weight="700" text-anchor="middle" font-family="Segoe UI, Arial, sans-serif">6</text><text x="1245" y="452" font-size="16" fill="#18324B" font-weight="400" text-anchor="start" font-family="Segoe UI, Arial, sans-serif">ST.RACK.BAY</text><circle cx="790" cy="810" r="15" fill="#FFFEFA" stroke="#18324B" stroke-width="2"/><text x="790" y="816" font-size="16" fill="#18324B" font-weight="700" text-anchor="middle" font-family="Segoe UI, Arial, sans-serif">7</text><circle cx="1224" cy="518" r="13" fill="#18324B" stroke="none" stroke-width="1"/><text x="1224" y="523" font-size="14" fill="#FFFEFA" font-weight="700" text-anchor="middle" font-family="Segoe UI, Arial, sans-serif">7</text><text x="1245" y="518" font-size="16" fill="#18324B" font-weight="400" text-anchor="start" font-family="Segoe UI, Arial, sans-serif">ST.RAIL</text><text x="1245" y="539" font-size="16" fill="#18324B" font-weight="400" text-anchor="start" font-family="Segoe UI, Arial, sans-serif">A–D</text><circle cx="990" cy="800" r="15" fill="#FFFEFA" stroke="#18324B" stroke-width="2"/><text x="990" y="806" font-size="16" fill="#18324B" font-weight="700" text-anchor="middle" font-family="Segoe UI, Arial, sans-serif">8</text><circle cx="1224" cy="584" r="13" fill="#18324B" stroke="none" stroke-width="1"/><text x="1224" y="589" font-size="14" fill="#FFFEFA" font-weight="700" text-anchor="middle" font-family="Segoe UI, Arial, sans-serif">8</text><text x="1245" y="584" font-size="16" fill="#18324B" font-weight="400" text-anchor="start" font-family="Segoe UI, Arial, sans-serif">ST.CONTROL.*</text><circle cx="760" cy="220" r="15" fill="#FFFEFA" stroke="#18324B" stroke-width="2"/><text x="760" y="226" font-size="16" fill="#18324B" font-weight="700" text-anchor="middle" font-family="Segoe UI, Arial, sans-serif">9</text><circle cx="1224" cy="650" r="13" fill="#18324B" stroke="none" stroke-width="1"/><text x="1224" y="655" font-size="14" fill="#FFFEFA" font-weight="700" text-anchor="middle" font-family="Segoe UI, Arial, sans-serif">9</text><text x="1245" y="650" font-size="16" fill="#18324B" font-weight="400" text-anchor="start" font-family="Segoe UI, Arial, sans-serif">ST.PROJECTION</text><circle cx="40" cy="720" r="15" fill="#FFFEFA" stroke="#18324B" stroke-width="2"/><text x="40" y="726" font-size="16" fill="#18324B" font-weight="700" text-anchor="middle" font-family="Segoe UI, Arial, sans-serif">10</text><circle cx="1224" cy="716" r="13" fill="#18324B" stroke="none" stroke-width="1"/><text x="1224" y="721" font-size="14" fill="#FFFEFA" font-weight="700" text-anchor="middle" font-family="Segoe UI, Arial, sans-serif">10</text><text x="1245" y="716" font-size="16" fill="#18324B" font-weight="400" text-anchor="start" font-family="Segoe UI, Arial, sans-serif">ST.EXIT.CY</text><circle cx="1160" cy="720" r="15" fill="#FFFEFA" stroke="#18324B" stroke-width="2"/><text x="1160" y="726" font-size="16" fill="#18324B" font-weight="700" text-anchor="middle" font-family="Segoe UI, Arial, sans-serif">11</text><circle cx="1224" cy="782" r="13" fill="#18324B" stroke="none" stroke-width="1"/><text x="1224" y="787" font-size="14" fill="#FFFEFA" font-weight="700" text-anchor="middle" font-family="Segoe UI, Arial, sans-serif">11</text><text x="1245" y="782" font-size="16" fill="#18324B" font-weight="400" text-anchor="start" font-family="Segoe UI, Arial, sans-serif">ST.EXIT.WK</text><circle cx="200" cy="600" r="15" fill="#FFFEFA" stroke="#18324B" stroke-width="2"/><text x="200" y="606" font-size="16" fill="#18324B" font-weight="700" text-anchor="middle" font-family="Segoe UI, Arial, sans-serif">12</text><circle cx="1224" cy="848" r="13" fill="#18324B" stroke="none" stroke-width="1"/><text x="1224" y="853" font-size="14" fill="#FFFEFA" font-weight="700" text-anchor="middle" font-family="Segoe UI, Arial, sans-serif">12</text><text x="1245" y="848" font-size="16" fill="#18324B" font-weight="400" text-anchor="start" font-family="Segoe UI, Arial, sans-serif">ACT.PLAYER</text><path d="M40 680H1160" fill="none" stroke="#224FC4" stroke-width="2" stroke-linecap="round" stroke-linejoin="round" stroke-dasharray="6 7"/><text x="30" y="950" font-size="21" fill="#425B6D" font-weight="400" text-anchor="start" font-family="Segoe UI, Arial, sans-serif">REVIEW OVERLAY: clear through-route y58–62; no new floor obstacle.</text><text x="30" y="987" font-size="21" fill="#425B6D" font-weight="400" text-anchor="start" font-family="Segoe UI, Arial, sans-serif">120 × 80 logical room. Artwork and accesses retain Item 05 positions. Numbers are not child-facing.</text></svg>