<svg xmlns="http://www.w3.org/2000/svg" xmlns:xlink="http://www.w3.org/1999/xlink" width="390" height="844" viewBox="0 0 390 844"><title>Rehearsal paused.</title><defs>
<linearGradient id="wall" x2="0" y2="1"><stop stop-color="#F7EAD8"/><stop offset="1" stop-color="#EAD6C5"/></linearGradient>
<linearGradient id="floor" x2="0.8" y2="1"><stop stop-color="#EACBAB"/><stop offset="1" stop-color="#F5DCC1"/></linearGradient>
<linearGradient id="paper" x2="0.4" y2="1"><stop stop-color="#FFFEFA"/><stop offset="1" stop-color="#FFF3D3"/></linearGradient>
<radialGradient id="glow"><stop stop-color="#FFF2A8" stop-opacity=".62"/><stop offset="1" stop-color="#FFF2A8" stop-opacity="0"/></radialGradient>
<pattern id="grain" width="6" height="6" patternUnits="userSpaceOnUse"><path d="M1 1h.08M4 4h.06" stroke="#18324B" opacity=".08" stroke-width=".1"/></pattern>
</defs><rect x="0" y="0" width="390" height="844" rx="0" fill="#FFF9E9" stroke="none" stroke-width="1" /><text x="20" y="46" font-size="30" fill="#18324B" font-weight="700" text-anchor="start" font-family="Segoe UI, Arial, sans-serif">Rehearsal</text><text x="20" y="86" font-size="30" fill="#18324B" font-weight="700" text-anchor="start" font-family="Segoe UI, Arial, sans-serif">paused.</text><g data-design-control="{&quot;label&quot;: &quot;Close&quot;, &quot;kind&quot;: &quot;secondary&quot;, &quot;width&quot;: 104, &quot;height&quot;: 58, &quot;textSize&quot;: 30, &quot;focus&quot;: false, &quot;fits&quot;: true}"><rect x="267" y="20" width="104" height="58" rx="12" fill="#FFFEFA" stroke="#18324B" stroke-width="1.6" /><text x="319.0" y="59.5" font-size="30" fill="#18324B" font-weight="700" text-anchor="middle" font-family="Segoe UI, Arial, sans-serif">Close</text></g><path d="M18 118H371" fill="none" stroke="#ADC3C7" stroke-width="1.5" stroke-linecap="round" stroke-linejoin="round" /><defs><clipPath id="bodyclip"><rect x="0" y="136" width="372" height="604"/></clipPath></defs><g clip-path="url(#bodyclip)"><g transform="translate(0 136)"><g transform="translate(20 5) scale(3.5 2.31)"><rect x="0" y="0" width="100" height="100" rx="1" fill="#E2EAF4" stroke="none" stroke-width="1" /><path d="M0 0h100v40Q68 28 53 42Q20 29 0 45Z" fill="#C5D6E8" stroke="none" stroke-width="1" stroke-linecap="round" stroke-linejoin="round" /><circle cx="12" cy="17" r="8" fill="#F7DB93" stroke="none" stroke-width="1"/><path d="M0 60L9 57L17 58L25 56L35 59V100H0Z" fill="#9DB9A3" stroke="#537F6A" stroke-width="0.25" stroke-linecap="round" stroke-linejoin="round" /><path d="M65 60Q72 38 85 38Q95 36 100 45V100H65Z" fill="#B7BE93" stroke="#637953" stroke-width="0.35" stroke-linecap="round" stroke-linejoin="round" /><path d="M35 60Q48 56 65 60V100H35Z" fill="#73BBCD" stroke="none" stroke-width="1" stroke-linecap="round" stroke-linejoin="round" /><path d="M40 76q8 3 17 0" fill="none" stroke="#C9ECED" stroke-width="0.7" stroke-linecap="round" stroke-linejoin="round" /><path d="M40 85q8 3 17 0" fill="none" stroke="#C9ECED" stroke-width="0.7" stroke-linecap="round" stroke-linejoin="round" /><path d="M40 94q8 3 17 0" fill="none" stroke="#C9ECED" stroke-width="0.7" stroke-linecap="round" stroke-linejoin="round" /><path d="M29 70l6 2 -3 4M66 72l5 -2" fill="none" stroke="#B67C53" stroke-width="2" stroke-linecap="round" stroke-linejoin="round" /><path d="M37.0 86L49.0 86L46.6 90L39.4 90Z" fill="#E9725C" stroke="#8D5745" stroke-width="0.4" stroke-linecap="round" stroke-linejoin="round" /><path d="M37.0 86L43 83L49.0 86Z" fill="#FFE4BA" stroke="#8D5745" stroke-width="0.4" stroke-linecap="round" stroke-linejoin="round" /><path d="M51.0 86L63.0 86L60.6 90L53.4 90Z" fill="#E9725C" stroke="#8D5745" stroke-width="0.4" stroke-linecap="round" stroke-linejoin="round" /><path d="M51.0 86L57 83L63.0 86Z" fill="#FFE4BA" stroke="#8D5745" stroke-width="0.4" stroke-linecap="round" stroke-linejoin="round" /><g transform="translate(23 70) scale(.5 1)"><g transform="translate(0 0) scale(0.12844036697247707)"><ellipse cx="0" cy="-1" rx="38" ry="7" fill="#18324B" opacity=".12"/><path d="M-23 -87L-27 -11L-5 -10L0 -63L6 -10L30 -11L24 -87Z" fill="#18324B" stroke="#6A5848" stroke-width="2.4" stroke-linecap="round" stroke-linejoin="round" /><path d="M-28 -16l24 1v10h-37q-5 -7 13 -11M7 -15l23 -1q19 5 15 11H7Z" fill="#2B7F93" stroke="#6A5848" stroke-width="2.4" stroke-linecap="round" stroke-linejoin="round" /><path d="M-26 -132Q0 -144 25 -132L32 -73Q0 -61 -33 -73Z" fill="#23828B" stroke="#6A5848" stroke-width="2.4" stroke-linecap="round" stroke-linejoin="round" /><path d="M-27 -125L-39 -87L-32 -69L-21 -77L-24 -92L-13 -121Z" fill="#23828B" stroke="#6A5848" stroke-width="2.4" stroke-linecap="round" stroke-linejoin="round" /><path d="M24 -127L42 -90L34 -72L23 -80L29 -91L13 -117Z" fill="#23828B" stroke="#6A5848" stroke-width="2.4" stroke-linecap="round" stroke-linejoin="round" /><circle cx="-30" cy="-72" r="7" fill="#D8A453" stroke="#6A5848" stroke-width="2.4"/><circle cx="30" cy="-75" r="7" fill="#D8A453" stroke="#6A5848" stroke-width="2.4"/><rect x="-8" y="-149" width="16" height="21" rx="5" fill="#D8A453" stroke="#6A5848" stroke-width="2.4" /><ellipse cx="0" cy="-164" rx="30" ry="32" fill="#D8A453" /><circle cx="-28" cy="-162" r="7" fill="#D8A453" stroke="none" stroke-width="1"/><circle cx="28" cy="-162" r="7" fill="#D8A453" stroke="none" stroke-width="1"/><path d="M-34 -175L-40 -186L-25 -191L-26 -203L-9 -196L2 -207L18 -196L34 -193L29 -180L36 -170L12 -179L-1 -190L-17 -176Z" fill="#293240" stroke="none" stroke-width="1" stroke-linecap="round" stroke-linejoin="round" /><ellipse cx="-10" cy="-163" rx="3.5" ry="5" fill="#18324B" /><ellipse cx="13" cy="-163" rx="3.5" ry="5" fill="#18324B" /><path d="M-5 -148q7 6 14 -2" fill="none" stroke="#18324B" stroke-width="2.3" stroke-linecap="round" stroke-linejoin="round" /><ellipse cx="-20" cy="-151" rx="5" ry="3" fill="#E9725C" opacity=".45"/><ellipse cx="24" cy="-151" rx="5" ry="3" fill="#E9725C" opacity=".45"/><g transform="translate(30 -105) scale(0.63)"><path d="M-12 -26v-7q12 -10 24 0v7" fill="none" stroke="#A64F43" stroke-width="5" stroke-linecap="round" stroke-linejoin="round" /><rect x="-23" y="-28" width="46" height="56" rx="7" fill="#E9725C" stroke="#A64F43" stroke-width="3" /><path d="M-22 -13q22 12 44 0" fill="none" stroke="#A64F43" stroke-width="3" stroke-linecap="round" stroke-linejoin="round" /><rect x="-5" y="-20" width="14" height="14" rx="1" fill="#F3C65C" stroke="none" stroke-width="1" /><path d="M-15 18l28 -17" fill="none" stroke="#FFF9E9" stroke-width="2" stroke-linecap="round" stroke-linejoin="round" stroke-dasharray="5 4"/></g><rect x="-30" y="-190" width="65" height="172" rx="0" fill="url(#grain)" stroke="none" stroke-width="1" /></g></g><g transform="translate(91 65) scale(.5 1)"><g transform="translate(0 0) scale(0.12844036697247707)"><ellipse cx="0" cy="-1" rx="38" ry="7" fill="#18324B" opacity=".12"/><path d="M-23 -82L-35 -16Q0 -6 36 -16L24 -82Z" fill="#704F89" stroke="#6A5848" stroke-width="2.4" stroke-linecap="round" stroke-linejoin="round" /><path d="M-28 -16l24 1v10h-37q-5 -7 13 -11M7 -15l23 -1q19 5 15 11H7Z" fill="#2B7F93" stroke="#6A5848" stroke-width="2.4" stroke-linecap="round" stroke-linejoin="round" /><path d="M-26 -132Q0 -144 25 -132L32 -73Q0 -61 -33 -73Z" fill="#E9725C" stroke="#6A5848" stroke-width="2.4" stroke-linecap="round" stroke-linejoin="round" /><path d="M-29 -126L-47 -99L-67 -54L-59 -44L-39 -87L-18 -112Z" fill="#E9725C" stroke="#6A5848" stroke-width="2.4" stroke-linecap="round" stroke-linejoin="round" /><path d="M24 -127L42 -90L34 -72L23 -80L29 -91L13 -117Z" fill="#E9725C" stroke="#6A5848" stroke-width="2.4" stroke-linecap="round" stroke-linejoin="round" /><circle cx="-62" cy="-47" r="7" fill="#B88047" stroke="#6A5848" stroke-width="2.4"/><circle cx="30" cy="-75" r="7" fill="#B88047" stroke="#6A5848" stroke-width="2.4"/><rect x="-8" y="-149" width="16" height="21" rx="5" fill="#B88047" stroke="#6A5848" stroke-width="2.4" /><circle cx="-24" cy="-184" r="17" fill="#F2E8D3" stroke="#6A5848" stroke-width="1"/><circle cx="0" cy="-194" r="17" fill="#F2E8D3" stroke="#6A5848" stroke-width="1"/><circle cx="25" cy="-183" r="17" fill="#F2E8D3" stroke="#6A5848" stroke-width="1"/><circle cx="-36" cy="-163" r="17" fill="#F2E8D3" stroke="#6A5848" stroke-width="1"/><circle cx="37" cy="-161" r="17" fill="#F2E8D3" stroke="#6A5848" stroke-width="1"/><ellipse cx="0" cy="-164" rx="30" ry="32" fill="#B88047" /><circle cx="-28" cy="-162" r="7" fill="#B88047" stroke="none" stroke-width="1"/><circle cx="28" cy="-162" r="7" fill="#B88047" stroke="none" stroke-width="1"/><path d="M-30 -183Q-12 -205 7 -185L19 -192L31 -181L24 -176L7 -184L-8 -174Z" fill="#F2E8D3" stroke="none" stroke-width="1" stroke-linecap="round" stroke-linejoin="round" /><ellipse cx="-10" cy="-163" rx="3.5" ry="5" fill="#18324B" /><ellipse cx="13" cy="-163" rx="3.5" ry="5" fill="#18324B" /><path d="M-5 -148q7 6 14 -2" fill="none" stroke="#18324B" stroke-width="2.3" stroke-linecap="round" stroke-linejoin="round" /><ellipse cx="-20" cy="-151" rx="5" ry="3" fill="#E9725C" opacity=".45"/><ellipse cx="24" cy="-151" rx="5" ry="3" fill="#E9725C" opacity=".45"/><rect x="-30" y="-190" width="65" height="172" rx="0" fill="url(#grain)" stroke="none" stroke-width="1" /></g></g><ellipse cx="87" cy="59" rx="2.73" ry="3.5" fill="#B47B32" /><path d="M86.7 56.55q-0.7000000000000001 2.1 .5 3.5" fill="none" stroke="#F2CD81" stroke-width="0.7000000000000001" stroke-linecap="round" stroke-linejoin="round" /><rect x="0" y="0" width="100" height="100" rx="0" fill="url(#grain)" stroke="none" stroke-width="1" /></g><text x="20" y="293" font-size="36" fill="#18324B" font-weight="400" text-anchor="start" font-family="Segoe UI, Arial, sans-serif">Grandma has the</text><text x="20" y="353" font-size="36" fill="#18324B" font-weight="400" text-anchor="start" font-family="Segoe UI, Arial, sans-serif">seed. Pip is still</text><text x="20" y="413" font-size="36" fill="#18324B" font-weight="400" text-anchor="start" font-family="Segoe UI, Arial, sans-serif">across the river.</text><rect x="20" y="524" width="342" height="70" rx="14" fill="#FFFEFA" stroke="#18324B" stroke-width="1.8" /><text x="38" y="564" font-size="30" fill="#18324B" font-weight="700" text-anchor="start" font-family="Segoe UI, Arial, sans-serif">Continue rehearsal</text><rect x="20" y="616" width="342" height="70" rx="14" fill="#FFFEFA" stroke="#18324B" stroke-width="1.8" /><text x="38" y="656" font-size="30" fill="#18324B" font-weight="700" text-anchor="start" font-family="Segoe UI, Arial, sans-serif">Restart rehearsal</text><rect x="20" y="708" width="342" height="70" rx="14" fill="#FFFEFA" stroke="#18324B" stroke-width="1.8" /><text x="38" y="748" font-size="30" fill="#18324B" font-weight="700" text-anchor="start" font-family="Segoe UI, Arial, sans-serif">Describe story now</text><rect x="20" y="800" width="342" height="70" rx="14" fill="#FFFEFA" stroke="#18324B" stroke-width="1.8" /><text x="38" y="840" font-size="30" fill="#18324B" font-weight="700" text-anchor="start" font-family="Segoe UI, Arial, sans-serif">Arrange tiles</text></g></g><rect x="379" y="136" width="4" height="604" rx="2" fill="#CCDBD9" stroke="none" stroke-width="1" /><rect x="378" y="136.0" width="6" height="408.9865470852018" rx="3" fill="#657989" stroke="none" stroke-width="1" /><rect x="0" y="744" width="390" height="100" rx="0" fill="#FFF9E9" stroke="none" stroke-width="1" /><g data-design-control="{&quot;label&quot;: &quot;Stop&quot;, &quot;kind&quot;: &quot;secondary&quot;, &quot;width&quot;: 104, &quot;height&quot;: 69, &quot;textSize&quot;: 30, &quot;focus&quot;: false, &quot;fits&quot;: true}"><rect x="16" y="759" width="104" height="69" rx="12" fill="#FFFEFA" stroke="#18324B" stroke-width="1.6" /><text x="68.0" y="804.0" font-size="30" fill="#18324B" font-weight="700" text-anchor="middle" font-family="Segoe UI, Arial, sans-serif">Stop</text></g><g data-design-control="{&quot;label&quot;: &quot;Back to Stage&quot;, &quot;kind&quot;: &quot;secondary&quot;, &quot;width&quot;: 241, &quot;height&quot;: 69, &quot;textSize&quot;: 30, &quot;focus&quot;: false, &quot;fits&quot;: true}"><rect x="132" y="759" width="241" height="69" rx="12" fill="#FFFEFA" stroke="#18324B" stroke-width="1.6" /><text x="252.5" y="804.0" font-size="30" fill="#18324B" font-weight="700" text-anchor="middle" font-family="Segoe UI, Arial, sans-serif">Back to Stage</text></g></svg>