<svg xmlns="http://www.w3.org/2000/svg" xmlns:xlink="http://www.w3.org/1999/xlink" width="1440" height="960" viewBox="0 0 1440 960"><title>Courtyard after flattening</title><defs>
<linearGradient id="wall" x2="0" y2="1"><stop stop-color="#F7EAD8"/><stop offset="1" stop-color="#EAD6C5"/></linearGradient>
<linearGradient id="floor" x2="0.8" y2="1"><stop stop-color="#EACBAB"/><stop offset="1" stop-color="#F5DCC1"/></linearGradient>
<linearGradient id="paper" x2="0.4" y2="1"><stop stop-color="#FFFEFA"/><stop offset="1" stop-color="#FFF3D3"/></linearGradient>
<radialGradient id="glow"><stop stop-color="#FFF2A8" stop-opacity=".62"/><stop offset="1" stop-color="#FFF2A8" stop-opacity="0"/></radialGradient>
<pattern id="grain" width="6" height="6" patternUnits="userSpaceOnUse"><path d="M1 1h.08M4 4h.06" stroke="#18324B" opacity=".08" stroke-width=".1"/></pattern>
</defs><g transform="scale(12)"><rect x="0" y="0" width="120" height="80" rx="0" fill="#D6EBE8" stroke="none" stroke-width="1" /><path d="M0 20Q22 9 40 19T80 15T120 20V30H0Z" fill="#A7C9B2" stroke="none" stroke-width="1" stroke-linecap="round" stroke-linejoin="round" /><rect x="0" y="28" width="120" height="52" rx="0" fill="#E9D5B7" stroke="none" stroke-width="1" /><path d="M0 28H120" fill="none" stroke="#BE9A77" stroke-width="0.7" stroke-linecap="round" stroke-linejoin="round" /><path d="M0 36H120" fill="none" stroke="#D5B491" stroke-width="0.25" stroke-linecap="round" stroke-linejoin="round" /><path d="M0 45H120" fill="none" stroke="#D5B491" stroke-width="0.25" stroke-linecap="round" stroke-linejoin="round" /><path d="M0 54H120" fill="none" stroke="#D5B491" stroke-width="0.25" stroke-linecap="round" stroke-linejoin="round" /><path d="M0 63H120" fill="none" stroke="#D5B491" stroke-width="0.25" stroke-linecap="round" stroke-linejoin="round" /><path d="M0 72H120" fill="none" stroke="#D5B491" stroke-width="0.25" stroke-linecap="round" stroke-linejoin="round" /><path d="M16 36v9" fill="none" stroke="#D5B491" stroke-width="0.22" stroke-linecap="round" stroke-linejoin="round" /><path d="M67 45v9" fill="none" stroke="#D5B491" stroke-width="0.22" stroke-linecap="round" stroke-linejoin="round" /><path d="M40 54v9" fill="none" stroke="#D5B491" stroke-width="0.22" stroke-linecap="round" stroke-linejoin="round" /><path d="M100 72v9" fill="none" stroke="#D5B491" stroke-width="0.22" stroke-linecap="round" stroke-linejoin="round" /><rect x="0" y="54" width="8" height="16" rx="1" fill="#DAE9E6" stroke="none" stroke-width="1" /><path d="M1 69V55h6v14" fill="none" stroke="#43787D" stroke-width="0.8" stroke-linecap="round" stroke-linejoin="round" /><path d="M2 62h4m-3 -2l-2 2 2 2" fill="none" stroke="#18324B" stroke-width="0.5" stroke-linecap="round" stroke-linejoin="round" /><text x="1" y="74" font-size="1.8" fill="#18324B" font-weight="700" text-anchor="start" font-family="Segoe UI, Arial, sans-serif">Stage</text><rect x="112" y="54" width="8" height="16" rx="1" fill="#DAE9E6" stroke="none" stroke-width="1" /><path d="M113 69V55h6v14" fill="none" stroke="#43787D" stroke-width="0.8" stroke-linecap="round" stroke-linejoin="round" /><path d="M114 62h4m-1 -2l2 2 -2 2" fill="none" stroke="#18324B" stroke-width="0.5" stroke-linecap="round" stroke-linejoin="round" /><text x="119" y="74" font-size="1.8" fill="#18324B" font-weight="700" text-anchor="end" font-family="Segoe UI, Arial, sans-serif">Workshop</text><path d="M5 7Q19 11 34 7" fill="none" stroke="#647A7A" stroke-width="0.25" stroke-linecap="round" stroke-linejoin="round" /><rect x="11" y="36" width="30" height="4" rx="1" fill="#18324B" stroke="none" stroke-width="1" opacity=".10"/><path d="M12 33v7h2v-7M38 33v7h2v-7" fill="#95744F" stroke="none" stroke-width="1" stroke-linecap="round" stroke-linejoin="round" /><rect x="10" y="19" width="32" height="16" rx="1" fill="#EEC69D" stroke="#967451" stroke-width="0.3" /><path d="M10 32h32v3h-32Z" fill="#DBAA77" stroke="#967451" stroke-width="0.2" stroke-linecap="round" stroke-linejoin="round" /><path d="M12.5 30L19.5 30L18.1 34L13.9 34Z" fill="#E9725C" stroke="#8D5745" stroke-width="0.4" stroke-linecap="round" stroke-linejoin="round" /><path d="M12.5 30L16 27L19.5 30Z" fill="#FFE4BA" stroke="#8D5745" stroke-width="0.4" stroke-linecap="round" stroke-linejoin="round" /><rect x="21.4" y="29.4" width="9" height="8" rx="0.3" fill="#18324B" stroke="none" stroke-width="1" opacity=".12"/><rect x="21" y="29" width="9" height="8" rx="0.3" fill="url(#paper)" stroke="#B9A585" stroke-width="0.25" /><path d="M22 30h7M22 31h6" fill="none" stroke="#728794" stroke-width="0.18" stroke-linecap="round" stroke-linejoin="round" /><path d="M14 13Q29 18 42 13" fill="none" stroke="#55796D" stroke-width="0.3" stroke-linecap="round" stroke-linejoin="round" /><path d="M17 15l2 4 -1 5 -2 -3Z" fill="#F4BF82" stroke="#B98362" stroke-width="0.2" stroke-linecap="round" stroke-linejoin="round" /><path d="M25 13l2 4 -1 5 -2 -3Z" fill="#F4BF82" stroke="#B98362" stroke-width="0.2" stroke-linecap="round" stroke-linejoin="round" /><path d="M33 18l2 4 -1 5 -2 -3Z" fill="#F4BF82" stroke="#B98362" stroke-width="0.2" stroke-linecap="round" stroke-linejoin="round" /><path d="M40 15l2 4 -1 5 -2 -3Z" fill="#F4BF82" stroke="#B98362" stroke-width="0.2" stroke-linecap="round" stroke-linejoin="round" /><rect x="49" y="34" width="8" height="4" rx="1" fill="#18324B" stroke="none" stroke-width="1" opacity=".10"/><path d="M50 31v7h2v-7M54 31v7h2v-7" fill="#95744F" stroke="none" stroke-width="1" stroke-linecap="round" stroke-linejoin="round" /><rect x="48" y="22" width="10" height="11" rx="1" fill="#72A1A6" stroke="#967451" stroke-width="0.3" /><path d="M48 30h10v3h-10Z" fill="#DBAA77" stroke="#967451" stroke-width="0.2" stroke-linecap="round" stroke-linejoin="round" /><rect x="49" y="24" width="8" height="11" rx="0.7" fill="#14646B" stroke="#18324B" stroke-width="0.3" /><rect x="50" y="25" width="6" height="7" rx="0.3" fill="#FFF9E9" stroke="none" stroke-width="1" /><rect x="80" y="12" width="28" height="28" rx="1" fill="#6A9290" stroke="#18324B" stroke-width="0.35" /><rect x="84.4" y="17.4" width="20" height="21" rx="0.3" fill="#18324B" stroke="none" stroke-width="1" opacity=".12"/><rect x="84" y="17" width="20" height="21" rx="0.3" fill="url(#paper)" stroke="#B9A585" stroke-width="0.25" /><path d="M85 18h18M85 19h17" fill="none" stroke="#728794" stroke-width="0.18" stroke-linecap="round" stroke-linejoin="round" /><rect x="92" y="37" width="4" height="1.5" rx="0.3" fill="#18324B" stroke="none" stroke-width="1" /><text x="85" y="21.0" font-size="1.5" fill="#18324B" font-weight="700" text-anchor="start" font-family="Segoe UI, Arial, sans-serif">OUTDOOR REHEARSAL</text><text x="85" y="22.6" font-size="1.5" fill="#18324B" font-weight="700" text-anchor="start" font-family="Segoe UI, Arial, sans-serif">CANCELED.</text><text x="85" y="25.0" font-size="1.5" fill="#18324B" font-weight="400" text-anchor="start" font-family="Segoe UI, Arial, sans-serif">Wind keeps folding the</text><text x="85" y="26.6" font-size="1.5" fill="#18324B" font-weight="400" text-anchor="start" font-family="Segoe UI, Arial, sans-serif">paper petals.</text><text x="85" y="29.0" font-size="1.5" fill="#18324B" font-weight="400" text-anchor="start" font-family="Segoe UI, Arial, sans-serif">The opening premiere is</text><text x="85" y="30.6" font-size="1.5" fill="#18324B" font-weight="400" text-anchor="start" font-family="Segoe UI, Arial, sans-serif">still planned.</text><text x="85" y="33.0" font-size="1.5" fill="#18324B" font-weight="400" text-anchor="start" font-family="Segoe UI, Arial, sans-serif">We will finish the flower</text><text x="85" y="34.6" font-size="1.5" fill="#18324B" font-weight="400" text-anchor="start" font-family="Segoe UI, Arial, sans-serif">shot indoors.</text><g transform="translate(64 48) scale(0.06422018348623854)"><ellipse cx="0" cy="-1" rx="38" ry="7" fill="#18324B" opacity=".12"/><path d="M-23 -87L-27 -11L-5 -10L0 -63L6 -10L30 -11L24 -87Z" fill="#18324B" stroke="#314456" stroke-width="2.4" stroke-linecap="round" stroke-linejoin="round" /><path d="M-28 -16l24 1v10h-37q-5 -7 13 -11M7 -15l23 -1q19 5 15 11H7Z" fill="#2B7F93" stroke="#314456" stroke-width="2.4" stroke-linecap="round" stroke-linejoin="round" /><path d="M-26 -132Q0 -144 25 -132L32 -73Q0 -61 -33 -73Z" fill="#704F89" stroke="#314456" stroke-width="2.4" stroke-linecap="round" stroke-linejoin="round" /><path d="M-30 -130q30 -30 60 0l-10 20q-20 -15 -40 0Z" fill="#5A4177" stroke="#314456" stroke-width="2.4" stroke-linecap="round" stroke-linejoin="round" /><path d="M-17 -84q17 9 34 0" fill="none" stroke="#503E70" stroke-width="3" stroke-linecap="round" stroke-linejoin="round" /><path d="M-27 -125L-39 -87L-32 -69L-21 -77L-24 -92L-13 -121Z" fill="#704F89" stroke="#314456" stroke-width="2.4" stroke-linecap="round" stroke-linejoin="round" /><path d="M24 -127L42 -90L34 -72L23 -80L29 -91L13 -117Z" fill="#704F89" stroke="#314456" stroke-width="2.4" stroke-linecap="round" stroke-linejoin="round" /><circle cx="-30" cy="-72" r="7" fill="#EBAB76" stroke="#314456" stroke-width="2.4"/><circle cx="30" cy="-75" r="7" fill="#EBAB76" stroke="#314456" stroke-width="2.4"/><g transform="translate(28 -77) rotate(-8)"><rect x="-20" y="-38" width="43" height="57" rx="5" fill="#18324B" stroke="#587180" stroke-width="3" /><circle cx="0" cy="-30" r="2" fill="#ABC9D3" stroke="none" stroke-width="1"/></g><rect x="-8" y="-149" width="16" height="21" rx="5" fill="#EBAB76" stroke="#314456" stroke-width="2.4" /><ellipse cx="0" cy="-164" rx="30" ry="32" fill="#EBAB76" /><circle cx="-28" cy="-162" r="7" fill="#EBAB76" stroke="none" stroke-width="1"/><circle cx="28" cy="-162" r="7" fill="#EBAB76" stroke="none" stroke-width="1"/><path d="M-33 -175L-33 -196Q-5 -220 31 -198L47 -205Q42 -185 14 -184L-3 -197L-12 -172Z" fill="#B95C2A" stroke="#96502B" stroke-width="2" stroke-linecap="round" stroke-linejoin="round" /><ellipse cx="-10" cy="-163" rx="3.5" ry="5" fill="#18324B" /><ellipse cx="13" cy="-163" rx="3.5" ry="5" fill="#18324B" /><path d="M-5 -148q7 6 14 -2" fill="none" stroke="#18324B" stroke-width="2.3" stroke-linecap="round" stroke-linejoin="round" /><ellipse cx="-20" cy="-151" rx="5" ry="3" fill="#E9725C" opacity=".45"/><ellipse cx="24" cy="-151" rx="5" ry="3" fill="#E9725C" opacity=".45"/></g><g transform="translate(30 58) scale(0.05504587155963303)"><ellipse cx="0" cy="-1" rx="38" ry="7" fill="#18324B" opacity=".12"/><path d="M-23 -87L-27 -11L-5 -10L0 -63L6 -10L30 -11L24 -87Z" fill="#3867D6" stroke="#314456" stroke-width="2.4" stroke-linecap="round" stroke-linejoin="round" /><path d="M-28 -16l24 1v10h-37q-5 -7 13 -11M7 -15l23 -1q19 5 15 11H7Z" fill="#E9725C" stroke="#314456" stroke-width="2.4" stroke-linecap="round" stroke-linejoin="round" /><path d="M-26 -132Q0 -144 25 -132L32 -73Q0 -61 -33 -73Z" fill="#F3C65C" stroke="#314456" stroke-width="2.4" stroke-linecap="round" stroke-linejoin="round" /><path d="M-6 -136L-8 -74L14 -72L10 -134Z" fill="#25848A" stroke="none" stroke-width="1" stroke-linecap="round" stroke-linejoin="round" /><path d="M-23 -127l15 12M22 -127l-10 12" fill="none" stroke="#BC8438" stroke-width="3" stroke-linecap="round" stroke-linejoin="round" /><path d="M-27 -125L-39 -87L-32 -69L-21 -77L-24 -92L-13 -121Z" fill="#F3C65C" stroke="#314456" stroke-width="2.4" stroke-linecap="round" stroke-linejoin="round" /><path d="M24 -127L42 -90L34 -72L23 -80L29 -91L13 -117Z" fill="#F3C65C" stroke="#314456" stroke-width="2.4" stroke-linecap="round" stroke-linejoin="round" /><circle cx="-30" cy="-72" r="7" fill="#BD7A48" stroke="#314456" stroke-width="2.4"/><circle cx="30" cy="-75" r="7" fill="#BD7A48" stroke="#314456" stroke-width="2.4"/><rect x="-8" y="-149" width="16" height="21" rx="5" fill="#BD7A48" stroke="#314456" stroke-width="2.4" /><ellipse cx="0" cy="-164" rx="30" ry="32" fill="#BD7A48" /><circle cx="-28" cy="-162" r="7" fill="#BD7A48" stroke="none" stroke-width="1"/><circle cx="28" cy="-162" r="7" fill="#BD7A48" stroke="none" stroke-width="1"/><circle cx="-26" cy="-185" r="11" fill="#38271F" stroke="#314456" stroke-width="1.5"/><circle cx="-12" cy="-199" r="11" fill="#38271F" stroke="#314456" stroke-width="1.5"/><circle cx="5" cy="-199" r="11" fill="#38271F" stroke="#314456" stroke-width="1.5"/><circle cx="22" cy="-191" r="11" fill="#38271F" stroke="#314456" stroke-width="1.5"/><circle cx="-30" cy="-174" r="11" fill="#38271F" stroke="#314456" stroke-width="1.5"/><circle cx="29" cy="-178" r="11" fill="#38271F" stroke="#314456" stroke-width="1.5"/><ellipse cx="-10" cy="-163" rx="3.5" ry="5" fill="#18324B" /><ellipse cx="13" cy="-163" rx="3.5" ry="5" fill="#18324B" /><path d="M-5 -148q7 6 14 -2" fill="none" stroke="#18324B" stroke-width="2.3" stroke-linecap="round" stroke-linejoin="round" /><ellipse cx="-20" cy="-151" rx="5" ry="3" fill="#E9725C" opacity=".45"/><ellipse cx="24" cy="-151" rx="5" ry="3" fill="#E9725C" opacity=".45"/></g><rect x="0" y="0" width="120" height="80" rx="0" fill="url(#grain)" stroke="none" stroke-width="1" /></g></svg>