<svg xmlns="http://www.w3.org/2000/svg" xmlns:xlink="http://www.w3.org/1999/xlink" width="1440" height="960" viewBox="0 0 1440 960"><title>An unreadable save is not treated as an empty save</title><defs>
<linearGradient id="wall" x2="0" y2="1"><stop stop-color="#F7EAD8"/><stop offset="1" stop-color="#EAD6C5"/></linearGradient>
<linearGradient id="floor" x2="0.8" y2="1"><stop stop-color="#EACBAB"/><stop offset="1" stop-color="#F5DCC1"/></linearGradient>
<linearGradient id="paper" x2="0.4" y2="1"><stop stop-color="#FFFEFA"/><stop offset="1" stop-color="#FFF3D3"/></linearGradient>
<radialGradient id="glow"><stop stop-color="#FFF2A8" stop-opacity=".62"/><stop offset="1" stop-color="#FFF2A8" stop-opacity="0"/></radialGradient>
<pattern id="grain" width="6" height="6" patternUnits="userSpaceOnUse"><path d="M1 1h.08M4 4h.06" stroke="#18324B" opacity=".08" stroke-width=".1"/></pattern>
</defs><rect x="0" y="0" width="1440" height="960" rx="0" fill="#FFF9E9" stroke="none" stroke-width="1" /><text x="48" y="70" font-size="45" fill="#18324B" font-weight="700" text-anchor="start" font-family="Segoe UI, Arial, sans-serif">Evidence Quest</text><text x="48" y="117" font-size="28" fill="#18324B" font-weight="400" text-anchor="start" font-family="Segoe UI, Arial, sans-serif">Launch Day: Where’s Loop?</text><g transform="translate(170 766) scale(1.224770642201835)"><ellipse cx="0" cy="-1" rx="38" ry="7" fill="#18324B" opacity=".12"/><path d="M-23 -87L-27 -11L-5 -10L0 -63L6 -10L30 -11L24 -87Z" fill="#3867D6" stroke="#314456" stroke-width="2.4" stroke-linecap="round" stroke-linejoin="round" /><path d="M-28 -16l24 1v10h-37q-5 -7 13 -11M7 -15l23 -1q19 5 15 11H7Z" fill="#E9725C" stroke="#314456" stroke-width="2.4" stroke-linecap="round" stroke-linejoin="round" /><path d="M-26 -132Q0 -144 25 -132L32 -73Q0 -61 -33 -73Z" fill="#F3C65C" stroke="#314456" stroke-width="2.4" stroke-linecap="round" stroke-linejoin="round" /><path d="M-6 -136L-8 -74L14 -72L10 -134Z" fill="#25848A" stroke="none" stroke-width="1" stroke-linecap="round" stroke-linejoin="round" /><path d="M-23 -127l15 12M22 -127l-10 12" fill="none" stroke="#BC8438" stroke-width="3" stroke-linecap="round" stroke-linejoin="round" /><path d="M-27 -125L-39 -87L-32 -69L-21 -77L-24 -92L-13 -121Z" fill="#F3C65C" stroke="#314456" stroke-width="2.4" stroke-linecap="round" stroke-linejoin="round" /><path d="M24 -127L42 -90L34 -72L23 -80L29 -91L13 -117Z" fill="#F3C65C" stroke="#314456" stroke-width="2.4" stroke-linecap="round" stroke-linejoin="round" /><circle cx="-30" cy="-72" r="7" fill="#BD7A48" stroke="#314456" stroke-width="2.4"/><circle cx="30" cy="-75" r="7" fill="#BD7A48" stroke="#314456" stroke-width="2.4"/><rect x="-8" y="-149" width="16" height="21" rx="5" fill="#BD7A48" stroke="#314456" stroke-width="2.4" /><ellipse cx="0" cy="-164" rx="30" ry="32" fill="#BD7A48" /><circle cx="-28" cy="-162" r="7" fill="#BD7A48" stroke="none" stroke-width="1"/><circle cx="28" cy="-162" r="7" fill="#BD7A48" stroke="none" stroke-width="1"/><circle cx="-26" cy="-185" r="11" fill="#38271F" stroke="#314456" stroke-width="1.5"/><circle cx="-12" cy="-199" r="11" fill="#38271F" stroke="#314456" stroke-width="1.5"/><circle cx="5" cy="-199" r="11" fill="#38271F" stroke="#314456" stroke-width="1.5"/><circle cx="22" cy="-191" r="11" fill="#38271F" stroke="#314456" stroke-width="1.5"/><circle cx="-30" cy="-174" r="11" fill="#38271F" stroke="#314456" stroke-width="1.5"/><circle cx="29" cy="-178" r="11" fill="#38271F" stroke="#314456" stroke-width="1.5"/><ellipse cx="-10" cy="-163" rx="3.5" ry="5" fill="#18324B" /><ellipse cx="13" cy="-163" rx="3.5" ry="5" fill="#18324B" /><path d="M-5 -148q7 6 14 -2" fill="none" stroke="#18324B" stroke-width="2.3" stroke-linecap="round" stroke-linejoin="round" /><ellipse cx="-20" cy="-151" rx="5" ry="3" fill="#E9725C" opacity=".45"/><ellipse cx="24" cy="-151" rx="5" ry="3" fill="#E9725C" opacity=".45"/></g><g transform="translate(1263 766) scale(1.096)"><ellipse cx="0" cy="0" rx="43" ry="8" fill="#18324B" opacity=".12"/><path d="M-23 -90v-19q22 -31 45 0v19" fill="none" stroke="#14646B" stroke-width="8" stroke-linecap="round" stroke-linejoin="round" /><rect x="-43" y="-96" width="86" height="84" rx="20" fill="url(#paper)" stroke="#18324B" stroke-width="3" /><path d="M-42 -42q42 12 84 0v13q0 17 -19 17h-49q-17 0 -16 -16Z" fill="#24858C" stroke="#18324B" stroke-width="2" stroke-linecap="round" stroke-linejoin="round" /><circle cx="7" cy="-66" r="25" fill="#18324B" stroke="#607A88" stroke-width="4"/><circle cx="7" cy="-66" r="17" fill="#254762" stroke="none" stroke-width="1"/><circle cx="13" cy="-73" r="6" fill="#FFFEFA" stroke="none" stroke-width="1"/><ellipse cx="-31" cy="-67" rx="5" ry="9" fill="#E9725C" /><rect x="-30" y="-18" width="16" height="21" rx="7" fill="#18324B" stroke="none" stroke-width="1" /><rect x="17" y="-18" width="16" height="21" rx="7" fill="#18324B" stroke="none" stroke-width="1" /></g><rect x="0" y="0" width="1440" height="960" rx="0" fill="#18324B" stroke="none" stroke-width="1" opacity=".28"/><rect x="402" y="178" width="650" height="613" rx="24" fill="#18324B" stroke="none" stroke-width="1" opacity=".14"/><rect x="395" y="168" width="650" height="613" rx="22" fill="#FFFEFA" stroke="#657989" stroke-width="1.5" /><text x="425" y="216" font-size="32" fill="#18324B" font-weight="700" text-anchor="start" font-family="Segoe UI, Arial, sans-serif">Continue</text><g data-design-control="{&quot;label&quot;: &quot;Close&quot;, &quot;kind&quot;: &quot;secondary&quot;, &quot;width&quot;: 88, &quot;height&quot;: 50, &quot;textSize&quot;: 20, &quot;focus&quot;: false, &quot;fits&quot;: true}"><rect x="933" y="185" width="88" height="50" rx="12" fill="#FFFEFA" stroke="#18324B" stroke-width="1.6" /><text x="977.0" y="217.0" font-size="20" fill="#18324B" font-weight="700" text-anchor="middle" font-family="Segoe UI, Arial, sans-serif">Close</text></g><path d="M419 256H1021" fill="none" stroke="#CDD9DD" stroke-width="1.5" stroke-linecap="round" stroke-linejoin="round" /><text x="433" y="319" font-size="31" fill="#18324B" font-weight="400" text-anchor="start" font-family="Segoe UI, Arial, sans-serif">Saved progress couldn’t be checked.</text><text x="433" y="400" font-size="26" fill="#18324B" font-weight="400" text-anchor="start" font-family="Segoe UI, Arial, sans-serif">Start a visit without replacing any saved game</text><text x="433" y="441" font-size="26" fill="#18324B" font-weight="400" text-anchor="start" font-family="Segoe UI, Arial, sans-serif">already on this device.</text><g data-design-control="{&quot;label&quot;: &quot;Retry&quot;, &quot;kind&quot;: &quot;secondary&quot;, &quot;width&quot;: 551, &quot;height&quot;: 50, &quot;textSize&quot;: 20, &quot;focus&quot;: false, &quot;fits&quot;: true}"><rect x="433" y="545" width="551" height="50" rx="12" fill="#FFFEFA" stroke="#18324B" stroke-width="1.6" /><text x="708.5" y="577.0" font-size="20" fill="#18324B" font-weight="700" text-anchor="middle" font-family="Segoe UI, Arial, sans-serif">Retry</text></g><g data-design-control="{&quot;label&quot;: &quot;Play without saving&quot;, &quot;kind&quot;: &quot;secondary&quot;, &quot;width&quot;: 551, &quot;height&quot;: 50, &quot;textSize&quot;: 20, &quot;focus&quot;: false, &quot;fits&quot;: true}"><rect x="433" y="613" width="551" height="50" rx="12" fill="#FFFEFA" stroke="#18324B" stroke-width="1.6" /><text x="708.5" y="645.0" font-size="20" fill="#18324B" font-weight="700" text-anchor="middle" font-family="Segoe UI, Arial, sans-serif">Play without saving</text></g><g data-design-control="{&quot;label&quot;: &quot;Back&quot;, &quot;kind&quot;: &quot;secondary&quot;, &quot;width&quot;: 154, &quot;height&quot;: 50, &quot;textSize&quot;: 20, &quot;focus&quot;: false, &quot;fits&quot;: true}"><rect x="433" y="681" width="154" height="50" rx="12" fill="#FFFEFA" stroke="#18324B" stroke-width="1.6" /><text x="510.0" y="713.0" font-size="20" fill="#18324B" font-weight="700" text-anchor="middle" font-family="Segoe UI, Arial, sans-serif">Back</text></g></svg>